<svg xmlns="http://www.w3.org/2000/svg" xmlns:xlink="http://www.w3.org/1999/xlink" width="500" zoomAndPan="magnify" viewBox="0 0 375 374.999991" height="500" preserveAspectRatio="xMidYMid meet" version="1.0"><defs><g/><clipPath id="73ca25e0d6"><path d="M 43.5 140 L 331.5 140 L 331.5 214 L 43.5 214 Z M 43.5 140 " clip-rule="nonzero"/></clipPath><clipPath id="693ce65f0f"><path d="M 267 82.25 L 317 82.25 L 317 132 L 267 132 Z M 267 82.25 " clip-rule="nonzero"/></clipPath></defs><path fill="#ffffff" d="M 84.726562 168.953125 C 84.636719 170.960938 84.582031 172.984375 84.609375 175.007812 C 84.175781 175.832031 83.773438 176.671875 83.410156 177.511719 C 83.726562 174.621094 84.175781 171.757812 84.726562 168.953125 Z M 125.984375 105.5625 C 124.148438 107.613281 122.488281 109.898438 120.972656 112.386719 C 117.523438 114.121094 114.34375 116 111.457031 118.027344 C 115.890625 113.441406 120.757812 109.25 125.984375 105.5625 Z M 258.023438 118.011719 C 255.136719 115.988281 251.945312 114.09375 248.492188 112.371094 C 246.976562 109.855469 245.285156 107.558594 243.4375 105.488281 C 248.175781 108.828125 252.667969 112.589844 256.839844 116.769531 C 257.242188 117.15625 257.632812 117.59375 258.023438 118.011719 Z M 284.871094 174.996094 C 284.914062 172.941406 284.855469 170.917969 284.753906 168.894531 C 285.304688 171.699219 285.722656 174.519531 286.039062 177.382812 C 285.695312 176.585938 285.304688 175.777344 284.871094 174.996094 Z M 284.464844 210.304688 C 284.25 206.445312 283.167969 202.683594 281.261719 199.027344 C 283.167969 192.304688 284.335938 185.464844 284.726562 178.625 C 285.75 181.082031 286.371094 183.585938 286.648438 186.113281 C 286.660156 187.054688 286.703125 188.007812 286.703125 188.960938 C 286.703125 196.222656 285.9375 203.363281 284.464844 210.304688 Z M 254.542969 263.339844 C 254.789062 262.980469 255.003906 262.605469 255.222656 262.226562 C 256.03125 261.621094 256.8125 260.984375 257.605469 260.347656 C 257.34375 260.609375 257.097656 260.898438 256.839844 261.15625 C 256.089844 261.910156 255.308594 262.617188 254.542969 263.339844 Z M 111.816406 260.289062 C 112.613281 260.941406 113.40625 261.59375 114.214844 262.199219 C 114.429688 262.574219 114.664062 262.949219 114.90625 263.328125 C 114.140625 262.605469 113.375 261.894531 112.625 261.15625 C 112.351562 260.867188 112.089844 260.578125 111.816406 260.289062 Z M 94.847656 164.902344 C 94.933594 171.554688 95.773438 178.378906 97.417969 185.347656 C 97.550781 185.867188 97.679688 186.390625 97.808594 186.910156 C 96.882812 187.71875 96.003906 188.542969 95.167969 189.382812 C 92.625 191.925781 90.53125 194.558594 88.914062 197.234375 C 87.078125 190.367188 86.039062 183.394531 85.808594 176.414062 C 87.871094 172.363281 90.921875 168.503906 94.847656 164.902344 Z M 89.214844 153.21875 C 91.195312 149.402344 94.070312 145.789062 97.722656 142.433594 C 95.886719 148.910156 94.921875 155.691406 94.832031 162.675781 C 93.835938 163.542969 92.882812 164.425781 91.988281 165.308594 C 89.476562 167.835938 87.410156 170.410156 85.75 173.058594 C 85.765625 169.066406 86.054688 165.089844 86.601562 161.144531 C 87.367188 158.453125 88.25 155.808594 89.214844 153.21875 Z M 104.769531 125.6875 C 104.078125 126.890625 103.414062 128.117188 102.792969 129.363281 C 102.011719 130.042969 101.261719 130.707031 100.554688 131.414062 C 101.894531 129.449219 103.296875 127.523438 104.769531 125.6875 Z M 117.160156 119.949219 C 112.582031 122.277344 108.511719 124.820312 105 127.554688 C 106.113281 125.515625 107.339844 123.519531 108.65625 121.566406 C 111.917969 118.894531 115.703125 116.421875 119.90625 114.207031 C 118.90625 116.03125 117.984375 117.9375 117.160156 119.949219 Z M 139.011719 106.574219 C 138.144531 108.382812 137.363281 110.320312 136.671875 112.359375 C 133.753906 113.210938 130.921875 114.152344 128.179688 115.164062 C 124.828125 116.421875 121.695312 117.75 118.75 119.183594 C 119.660156 117.085938 120.667969 115.105469 121.78125 113.238281 C 126.964844 110.664062 132.757812 108.425781 139.011719 106.574219 Z M 131.082031 102.164062 C 132.570312 101.238281 134.070312 100.355469 135.601562 99.519531 C 139.023438 97.941406 142.738281 96.539062 146.664062 95.339844 C 143.949219 98.113281 141.625 101.398438 139.675781 105.199219 C 133.636719 106.949219 127.992188 109.046875 122.894531 111.445312 C 125.246094 107.859375 127.992188 104.753906 131.082031 102.164062 Z M 148.441406 93.632812 C 148.179688 93.691406 147.921875 93.761719 147.660156 93.851562 C 147.980469 93.71875 148.296875 93.605469 148.613281 93.488281 C 148.554688 93.53125 148.5 93.574219 148.441406 93.632812 Z M 165.902344 90.046875 C 160.671875 90.726562 155.632812 91.710938 150.851562 92.96875 C 150.882812 92.867188 150.894531 92.75 150.882812 92.648438 C 156.167969 90.785156 161.640625 89.339844 167.289062 88.371094 C 166.796875 88.875 166.335938 89.441406 165.902344 90.046875 Z M 218.628906 92.9375 C 213.847656 91.679688 208.808594 90.699219 203.566406 90.019531 C 203.144531 89.425781 202.699219 88.875 202.222656 88.371094 C 207.808594 89.339844 213.296875 90.742188 218.613281 92.605469 C 218.582031 92.722656 218.582031 92.824219 218.628906 92.9375 Z M 220.980469 93.574219 C 220.9375 93.53125 220.878906 93.488281 220.824219 93.429688 C 221.140625 93.558594 221.472656 93.675781 221.789062 93.804688 C 221.53125 93.734375 221.253906 93.648438 220.980469 93.574219 Z M 250.730469 119.152344 C 247.785156 117.738281 244.652344 116.390625 241.316406 115.148438 C 238.554688 114.136719 235.726562 113.195312 232.824219 112.34375 C 232.128906 110.304688 231.335938 108.382812 230.46875 106.546875 C 236.722656 108.410156 242.511719 110.636719 247.683594 113.226562 C 248.808594 115.089844 249.820312 117.070312 250.730469 119.152344 Z M 260.796875 121.523438 C 262.125 123.476562 263.351562 125.472656 264.464844 127.511719 C 260.957031 124.792969 256.898438 122.246094 252.320312 119.933594 C 251.496094 117.925781 250.570312 116 249.5625 114.179688 C 253.761719 116.40625 257.53125 118.851562 260.796875 121.523438 Z M 266.660156 129.316406 C 266.039062 128.046875 265.359375 126.800781 264.652344 125.558594 C 266.167969 127.480469 267.628906 129.433594 269 131.429688 C 268.25 130.722656 267.46875 129.996094 266.660156 129.316406 Z M 277.519531 165.308594 C 276.609375 164.410156 275.65625 163.542969 274.660156 162.660156 C 274.558594 155.605469 273.578125 148.765625 271.714844 142.230469 C 275.367188 145.613281 278.242188 149.257812 280.25 153.117188 C 281.246094 155.777344 282.125 158.484375 282.890625 161.230469 C 283.441406 165.148438 283.714844 169.082031 283.730469 173.042969 C 282.082031 170.398438 280.019531 167.824219 277.519531 165.308594 Z M 273.996094 189.382812 C 273.246094 188.617188 272.4375 187.878906 271.613281 187.15625 C 271.773438 186.546875 271.929688 185.941406 272.0625 185.347656 C 273.722656 178.378906 274.558594 171.554688 274.632812 164.917969 C 275.210938 165.4375 275.773438 165.972656 276.308594 166.523438 C 279.5 169.703125 281.953125 173.015625 283.6875 176.398438 C 283.457031 183.496094 282.371094 190.609375 280.464844 197.609375 C 278.820312 194.789062 276.652344 192.042969 273.996094 189.382812 Z M 276.261719 209.84375 C 274.703125 207.210938 272.667969 204.664062 270.199219 202.179688 C 269.359375 201.355469 268.492188 200.558594 267.585938 199.75 C 269.027344 195.976562 270.285156 192.1875 271.308594 188.382812 C 271.945312 188.976562 272.582031 189.570312 273.203125 190.175781 C 276.105469 193.082031 278.386719 196.089844 280.046875 199.15625 C 279.007812 202.757812 277.738281 206.328125 276.261719 209.84375 Z M 283.296875 213.804688 C 282.328125 216.40625 281.273438 218.894531 280.132812 221.292969 C 279.800781 217.808594 278.746094 214.398438 276.957031 211.070312 C 278.445312 207.628906 279.730469 204.160156 280.796875 200.632812 C 282.515625 204.261719 283.382812 207.992188 283.382812 211.792969 C 283.382812 212.460938 283.355469 213.140625 283.296875 213.804688 Z M 280.234375 223.652344 C 280.753906 222.636719 281.246094 221.597656 281.738281 220.542969 C 281.246094 222.03125 280.742188 223.492188 280.191406 224.964844 C 280.21875 224.519531 280.234375 224.097656 280.234375 223.652344 Z M 235.8125 271.597656 C 236.507812 269.949219 236.867188 268.273438 236.925781 266.535156 C 243.554688 263.082031 250.441406 258.640625 256.984375 253.046875 C 256.796875 255.894531 255.902344 258.714844 254.371094 261.445312 C 248.621094 265.683594 242.269531 269.039062 235.8125 271.597656 Z M 225.921875 282.382812 C 225.832031 282.414062 225.746094 282.457031 225.660156 282.472656 C 227.148438 281.515625 228.519531 280.535156 229.746094 279.476562 C 231.839844 278.855469 233.921875 278.105469 235.941406 277.28125 C 232.691406 279.160156 229.355469 280.867188 225.921875 282.382812 Z M 139.617188 279.433594 C 140.800781 280.476562 142.128906 281.457031 143.574219 282.382812 C 143.546875 282.382812 143.515625 282.371094 143.488281 282.355469 C 140.078125 280.851562 136.730469 279.144531 133.492188 277.25 C 135.488281 278.074219 137.539062 278.8125 139.617188 279.433594 Z M 112.496094 253.046875 C 119.039062 258.628906 125.925781 263.066406 132.554688 266.523438 C 132.597656 268.242188 132.960938 269.933594 133.636719 271.582031 C 127.199219 269.007812 120.84375 265.667969 115.09375 261.433594 C 113.566406 258.699219 112.667969 255.878906 112.496094 253.046875 Z M 89.230469 223.605469 C 89.230469 224.054688 89.257812 224.488281 89.273438 224.953125 C 88.710938 223.449219 88.191406 221.945312 87.699219 220.425781 C 88.191406 221.511719 88.695312 222.582031 89.230469 223.605469 Z M 101.894531 199.734375 C 100.984375 200.542969 100.105469 201.339844 99.28125 202.179688 C 96.796875 204.652344 94.789062 207.210938 93.230469 209.8125 C 91.699219 206.183594 90.398438 202.496094 89.332031 198.765625 C 91.425781 195.019531 94.402344 191.464844 98.125 188.136719 C 99.152344 192.015625 100.421875 195.890625 101.894531 199.734375 Z M 114.199219 177.496094 C 115.007812 181.558594 115.992188 185.652344 117.144531 189.730469 C 111.703125 192.460938 106.878906 195.554688 102.820312 198.953125 C 101.347656 195.078125 100.089844 191.191406 99.078125 187.316406 C 103.28125 183.714844 108.367188 180.433594 114.199219 177.496094 Z M 113.59375 131.644531 C 112.410156 137.113281 111.703125 143.011719 111.570312 149.328125 C 111.542969 150.125 111.558594 150.921875 111.558594 151.714844 C 105.652344 154.664062 100.410156 158.003906 96.003906 161.679688 C 96.191406 154.507812 97.304688 147.582031 99.355469 140.972656 C 103.355469 137.574219 108.148438 134.453125 113.59375 131.644531 Z M 113.925781 130.113281 C 108.625 132.804688 103.945312 135.765625 99.988281 138.949219 C 101.042969 135.898438 102.285156 132.917969 103.730469 130.011719 C 107.371094 126.890625 111.703125 124.027344 116.597656 121.453125 C 115.558594 124.183594 114.648438 127.078125 113.925781 130.113281 Z M 134.085938 122.277344 C 129.941406 123.492188 125.957031 124.863281 122.199219 126.367188 C 119.789062 127.351562 117.476562 128.378906 115.269531 129.449219 C 116.046875 126.367188 116.988281 123.417969 118.097656 120.671875 C 123.53125 117.9375 129.636719 115.566406 136.238281 113.601562 C 135.386719 116.304688 134.648438 119.195312 134.085938 122.277344 Z M 159.429688 108.640625 C 158.984375 111.359375 158.609375 114.207031 158.332031 117.144531 C 150.289062 118.257812 142.550781 119.847656 135.300781 121.914062 C 135.90625 118.804688 136.65625 115.914062 137.566406 113.210938 C 144.382812 111.246094 151.71875 109.710938 159.429688 108.640625 Z M 160.816406 101.933594 C 160.371094 103.695312 159.980469 105.546875 159.617188 107.5 C 152.09375 108.527344 144.832031 110.015625 138 111.953125 C 138.734375 109.898438 139.546875 107.960938 140.453125 106.140625 C 146.824219 104.332031 153.667969 102.914062 160.816406 101.933594 Z M 184.167969 99.199219 C 176.675781 99.214844 169.324219 99.691406 162.289062 100.585938 C 163.402344 96.757812 164.804688 93.53125 166.480469 91.117188 C 172.210938 90.363281 178.132812 89.976562 184.167969 89.945312 Z M 207.203125 100.585938 C 200.15625 99.691406 192.804688 99.214844 185.296875 99.199219 L 185.296875 89.945312 C 191.363281 89.960938 197.28125 90.351562 202.972656 91.074219 C 204.675781 93.503906 206.0625 96.726562 207.203125 100.585938 Z M 209.859375 107.484375 C 209.515625 105.546875 209.125 103.683594 208.664062 101.917969 C 215.824219 102.902344 222.65625 104.316406 229.023438 106.125 C 229.933594 107.949219 230.757812 109.898438 231.496094 111.953125 C 224.648438 110 217.398438 108.511719 209.859375 107.484375 Z M 234.179688 121.871094 C 226.988281 119.832031 219.261719 118.226562 211.160156 117.113281 C 210.871094 114.179688 210.511719 111.34375 210.050781 108.640625 C 217.773438 109.695312 225.113281 111.246094 231.929688 113.195312 C 232.824219 115.898438 233.574219 118.777344 234.179688 121.871094 Z M 254.210938 129.375 C 248.535156 126.628906 242.226562 124.230469 235.394531 122.234375 C 234.816406 119.152344 234.109375 116.289062 233.242188 113.585938 C 239.855469 115.566406 245.949219 117.925781 251.378906 120.644531 C 252.492188 123.390625 253.429688 126.3125 254.210938 129.375 Z M 255.554688 130.027344 C 254.816406 127.003906 253.921875 124.140625 252.882812 121.4375 C 257.777344 123.996094 262.097656 126.859375 265.734375 129.984375 C 267.164062 132.847656 268.421875 135.808594 269.460938 138.832031 C 265.476562 135.636719 260.796875 132.671875 255.554688 130.027344 Z M 257.9375 151.703125 C 257.9375 150.921875 257.9375 150.125 257.921875 149.328125 C 257.777344 142.9375 257.070312 136.953125 255.859375 131.429688 C 261.289062 134.21875 266.082031 137.359375 270.066406 140.769531 C 272.148438 147.449219 273.304688 154.433594 273.492188 161.664062 C 269.070312 158.003906 263.84375 154.664062 257.9375 151.703125 Z M 252.332031 189.730469 C 253.488281 185.695312 254.457031 181.660156 255.25 177.65625 C 261.101562 180.621094 266.167969 183.929688 270.34375 187.546875 C 269.347656 191.347656 268.117188 195.179688 266.675781 198.96875 C 262.601562 195.554688 257.777344 192.476562 252.332031 189.730469 Z M 261.765625 210.1875 C 257.980469 207.023438 253.503906 204.144531 248.449219 201.601562 C 249.777344 198.027344 250.960938 194.441406 252.015625 190.828125 C 257.445312 193.574219 262.226562 196.667969 266.242188 200.082031 C 264.914062 203.480469 263.425781 206.847656 261.765625 210.1875 Z M 270.933594 220.671875 C 269.445312 218.128906 267.496094 215.640625 265.085938 213.210938 C 264.320312 212.445312 263.484375 211.691406 262.644531 210.957031 C 264.320312 207.628906 265.808594 204.261719 267.152344 200.878906 C 267.917969 201.570312 268.683594 202.265625 269.390625 202.972656 C 272.03125 205.632812 274.125 208.351562 275.699219 211.15625 C 274.285156 214.367188 272.710938 217.550781 270.933594 220.671875 Z M 212.144531 274.402344 C 212.054688 273.550781 211.824219 272.695312 211.449219 271.859375 C 219.652344 268.691406 227.320312 264.832031 234.382812 260.320312 C 235.277344 262.113281 235.742188 263.964844 235.785156 265.855469 C 226.917969 270.410156 218.539062 273.160156 212.144531 274.402344 Z M 211.722656 277.773438 C 211.984375 277.0625 212.128906 276.3125 212.171875 275.558594 C 218.539062 274.316406 226.875 271.625 235.753906 267.128906 C 235.625 268.835938 235.148438 270.527344 234.339844 272.160156 C 226.554688 275.097656 218.726562 276.933594 211.722656 277.773438 Z M 205.976562 284.191406 C 206.972656 283.570312 207.867188 282.890625 208.648438 282.183594 C 214.484375 282.570312 220.808594 281.863281 227.046875 280.246094 C 225.34375 281.488281 223.40625 282.660156 221.3125 283.714844 C 216.488281 284.886719 212.605469 284.914062 205.976562 284.191406 Z M 171.011719 287.417969 C 175.101562 288.601562 179.808594 289.28125 184.734375 289.28125 C 187.171875 289.28125 189.527344 289.121094 191.765625 288.832031 C 192.515625 289.570312 193.296875 290.179688 194.089844 290.625 C 191 290.902344 187.882812 291.058594 184.734375 291.058594 C 177.828125 291.058594 171.027344 290.367188 164.398438 289.035156 C 166.710938 288.832031 168.847656 288.296875 171.011719 287.417969 Z M 160.875 282.183594 C 161.65625 282.890625 162.550781 283.570312 163.546875 284.191406 C 156.875 284.914062 152.988281 284.886719 148.136719 283.699219 C 146.042969 282.644531 144.121094 281.488281 142.417969 280.230469 C 148.671875 281.863281 155.027344 282.570312 160.875 282.183594 Z M 157.308594 275.558594 C 157.351562 276.296875 157.496094 277.046875 157.757812 277.773438 C 150.75 276.917969 142.910156 275.097656 135.125 272.148438 C 134.316406 270.511719 133.839844 268.835938 133.726562 267.128906 C 142.59375 271.613281 150.925781 274.316406 157.308594 275.558594 Z M 135.082031 260.289062 C 142.160156 264.832031 149.828125 268.691406 158.03125 271.84375 C 157.640625 272.683594 157.410156 273.535156 157.324219 274.402344 C 150.925781 273.144531 142.5625 270.398438 133.683594 265.84375 C 133.726562 263.933594 134.214844 262.082031 135.082031 260.289062 Z M 97.910156 221.800781 C 96.25 224.921875 95.28125 228.132812 95.023438 231.429688 C 93.359375 228.855469 91.800781 226.195312 90.371094 223.363281 C 90.414062 219.601562 91.351562 215.945312 93.101562 212.429688 C 94.53125 215.609375 96.132812 218.734375 97.910156 221.800781 Z M 106.847656 210.941406 C 105.984375 211.691406 105.160156 212.445312 104.378906 213.210938 C 101.984375 215.625 100.03125 218.113281 98.546875 220.65625 C 96.785156 217.535156 95.195312 214.367188 93.792969 211.15625 C 95.816406 207.527344 98.703125 204.085938 102.328125 200.878906 C 103.671875 204.246094 105.175781 207.617188 106.847656 210.941406 Z M 121.046875 201.585938 C 115.976562 204.128906 111.5 207.007812 107.714844 210.175781 C 106.054688 206.847656 104.566406 203.464844 103.238281 200.082031 C 107.210938 196.726562 112.003906 193.632812 117.476562 190.871094 C 118.53125 194.457031 119.714844 198.042969 121.046875 201.585938 Z M 137.132812 183.28125 C 137.914062 186.9375 138.792969 190.640625 139.777344 194.355469 C 133.335938 196.222656 127.398438 198.476562 122.054688 201.078125 C 120.742188 197.523438 119.558594 193.953125 118.503906 190.367188 C 124.078125 187.648438 130.347656 185.261719 137.132812 183.28125 Z M 134.589844 169.601562 C 135.226562 173.707031 135.976562 177.886719 136.875 182.125 C 130.101562 184.089844 123.816406 186.460938 118.1875 189.222656 C 117.03125 185.132812 116.046875 181.039062 115.238281 176.976562 C 121.046875 174.140625 127.542969 171.65625 134.589844 169.601562 Z M 132.410156 145.46875 C 132.554688 152.699219 133.234375 160.40625 134.417969 168.429688 C 127.386719 170.46875 120.871094 172.925781 115.007812 175.789062 C 113.535156 168.039062 112.757812 160.40625 112.667969 153.074219 C 118.574219 150.152344 125.203125 147.609375 132.410156 145.46875 Z M 132.800781 131.804688 C 132.46875 135.578125 132.339844 139.554688 132.367188 143.675781 C 125.261719 145.757812 118.648438 148.273438 112.683594 151.152344 C 112.683594 150.558594 112.683594 149.953125 112.699219 149.359375 C 112.84375 142.78125 113.59375 136.621094 114.894531 130.980469 C 120.597656 128.160156 126.953125 125.675781 133.855469 123.59375 C 133.40625 126.210938 133.046875 128.929688 132.800781 131.804688 Z M 157.480469 138.414062 C 149.046875 139.554688 141.003906 141.21875 133.492188 143.34375 C 133.464844 139.425781 133.609375 135.59375 133.925781 131.890625 C 134.1875 128.871094 134.578125 125.976562 135.054688 123.261719 C 142.289062 121.132812 150.074219 119.472656 158.21875 118.328125 C 157.65625 124.808594 157.4375 131.691406 157.480469 138.414062 Z M 184.167969 116.476562 L 184.167969 136.621094 C 175.332031 136.648438 166.695312 137.226562 158.40625 138.296875 C 158.390625 131.125 158.652344 124.34375 159.214844 118.183594 C 167.242188 117.113281 175.605469 116.523438 184.167969 116.476562 Z M 184.167969 106.949219 L 184.167969 115.351562 C 175.75 115.378906 167.402344 115.945312 159.328125 117 C 159.632812 114.019531 160.007812 111.15625 160.484375 108.511719 C 168.066406 107.515625 176.011719 106.980469 184.167969 106.949219 Z M 184.167969 105.808594 C 176.140625 105.835938 168.285156 106.355469 160.6875 107.339844 C 161.0625 105.386719 161.480469 103.523438 161.945312 101.789062 C 169.09375 100.847656 176.542969 100.355469 184.167969 100.328125 Z M 185.296875 105.808594 L 185.296875 100.328125 C 192.9375 100.355469 200.386719 100.847656 207.535156 101.773438 C 208.011719 103.507812 208.417969 105.375 208.792969 107.339844 C 201.195312 106.355469 193.324219 105.835938 185.296875 105.808594 Z M 185.296875 115.351562 L 185.296875 106.949219 C 193.46875 106.964844 201.414062 107.5 209.007812 108.496094 C 209.472656 111.15625 209.847656 113.992188 210.148438 116.96875 C 202.191406 115.929688 193.84375 115.378906 185.296875 115.351562 Z M 211.074219 138.296875 C 202.800781 137.214844 194.148438 136.632812 185.296875 136.621094 L 185.296875 116.476562 C 193.902344 116.507812 202.265625 117.085938 210.265625 118.125 C 210.84375 124.300781 211.101562 131.109375 211.074219 138.296875 Z M 235.566406 131.890625 C 235.886719 135.59375 236.015625 139.425781 235.984375 143.34375 C 228.492188 141.21875 220.445312 139.554688 212.011719 138.414062 C 212.042969 131.660156 211.839844 124.761719 211.261719 118.257812 C 219.4375 119.386719 227.191406 121.019531 234.398438 123.085938 C 234.902344 125.878906 235.292969 128.8125 235.566406 131.890625 Z M 237.113281 143.675781 C 237.15625 139.554688 237.011719 135.578125 236.695312 131.804688 C 236.433594 128.882812 236.074219 126.109375 235.609375 123.433594 C 242.511719 125.488281 248.867188 127.945312 254.558594 130.765625 C 255.871094 136.476562 256.636719 142.691406 256.796875 149.359375 C 256.8125 149.953125 256.796875 150.558594 256.8125 151.152344 C 250.847656 148.261719 244.230469 145.757812 237.113281 143.675781 Z M 235.046875 168.53125 C 236.261719 160.449219 236.9375 152.699219 237.082031 145.410156 C 244.246094 147.535156 250.875 150.097656 256.8125 153.046875 C 256.738281 160.421875 255.929688 168.128906 254.457031 175.933594 C 248.609375 173.058594 242.082031 170.585938 235.046875 168.53125 Z M 232.605469 182.136719 C 233.503906 177.929688 234.238281 173.796875 234.875 169.730469 C 235.726562 169.976562 236.59375 170.210938 237.445312 170.46875 C 243.539062 172.390625 249.140625 174.621094 254.210938 177.121094 C 253.417969 181.140625 252.449219 185.1875 251.308594 189.222656 C 245.660156 186.476562 239.394531 184.089844 232.605469 182.136719 Z M 229.71875 194.355469 C 230.699219 190.625 231.582031 186.910156 232.359375 183.238281 C 239.132812 185.1875 245.386719 187.574219 250.992188 190.320312 C 249.9375 193.921875 248.753906 197.523438 247.4375 201.09375 C 242.09375 198.492188 236.144531 196.222656 229.71875 194.355469 Z M 243.597656 210.578125 C 241.316406 215.726562 238.800781 220.699219 236.058594 225.488281 C 231.726562 223.363281 226.902344 221.523438 221.6875 220.007812 C 223.234375 215.828125 224.707031 211.519531 226.078125 207.125 C 227.292969 203.207031 228.417969 199.316406 229.445312 195.46875 C 235.828125 197.304688 241.734375 199.546875 247.046875 202.148438 C 245.964844 204.984375 244.839844 207.804688 243.597656 210.578125 Z M 247.582031 232.804688 C 244.578125 230.300781 241.039062 228.015625 237.070312 225.992188 C 239.8125 221.191406 242.339844 216.203125 244.636719 211.042969 C 245.863281 208.265625 247.003906 205.476562 248.058594 202.65625 C 253.070312 205.199219 257.503906 208.0625 261.230469 211.214844 C 257.460938 218.632812 252.882812 225.878906 247.582031 232.804688 Z M 250.398438 235.363281 C 249.777344 234.742188 249.113281 234.132812 248.433594 233.539062 C 253.734375 226.628906 258.328125 219.398438 262.109375 211.980469 C 262.863281 212.660156 263.597656 213.328125 264.277344 214.019531 C 266.804688 216.550781 268.796875 219.140625 270.269531 221.800781 C 269.878906 222.480469 269.492188 223.160156 269.085938 223.824219 C 265.113281 230.257812 260.492188 236.230469 255.308594 241.695312 C 254.066406 239.511719 252.433594 237.414062 250.398438 235.363281 Z M 231.394531 254.332031 C 231.003906 253.957031 230.585938 253.582031 230.167969 253.21875 C 236.363281 247.710938 242.226562 241.480469 247.523438 234.742188 C 247.597656 234.640625 247.667969 234.523438 247.742188 234.4375 C 248.390625 235 249.011719 235.578125 249.589844 236.15625 C 251.65625 238.226562 253.273438 240.367188 254.484375 242.550781 C 248.636719 248.578125 242.035156 253.972656 234.800781 258.683594 C 233.933594 257.195312 232.792969 255.75 231.394531 254.332031 Z M 209.167969 268.632812 C 209.082031 268.546875 209.007812 268.488281 208.921875 268.417969 C 215.867188 264.613281 222.757812 259.699219 229.3125 253.972656 C 229.761719 254.347656 230.195312 254.738281 230.597656 255.144531 C 231.941406 256.503906 233.027344 257.890625 233.863281 259.308594 C 226.785156 263.832031 219.117188 267.695312 210.914062 270.847656 C 210.453125 270.078125 209.875 269.34375 209.167969 268.632812 Z M 140.136719 253.941406 C 146.707031 259.683594 153.609375 264.597656 160.558594 268.402344 C 160.472656 268.488281 160.382812 268.546875 160.3125 268.632812 C 159.605469 269.34375 159.027344 270.078125 158.550781 270.847656 C 150.347656 267.695312 142.691406 263.820312 135.617188 259.308594 C 136.714844 257.414062 138.246094 255.621094 140.136719 253.941406 Z M 121.722656 234.421875 C 121.8125 234.523438 121.882812 234.640625 121.96875 234.742188 C 127.253906 241.480469 133.117188 247.710938 139.3125 253.207031 C 138.894531 253.582031 138.476562 253.957031 138.070312 254.332031 C 136.671875 255.734375 135.53125 257.195312 134.664062 258.683594 C 127.441406 253.972656 120.84375 248.5625 114.996094 242.550781 C 116.570312 239.6875 118.851562 236.953125 121.722656 234.421875 Z M 121.046875 233.527344 C 120.367188 234.121094 119.703125 234.742188 119.082031 235.363281 C 117.03125 237.402344 115.414062 239.511719 114.171875 241.667969 C 108.972656 236.214844 104.367188 230.257812 100.410156 223.824219 C 99.988281 223.160156 99.613281 222.480469 99.210938 221.800781 C 101.128906 218.328125 103.890625 215.046875 107.371094 211.980469 C 111.167969 219.386719 115.746094 226.613281 121.046875 233.527344 Z M 124.859375 211.042969 C 127.140625 216.191406 129.667969 221.179688 132.410156 225.980469 C 128.4375 228.015625 124.902344 230.300781 121.910156 232.789062 C 116.613281 225.878906 112.019531 218.632812 108.25 211.214844 C 111.945312 208.105469 116.378906 205.242188 121.433594 202.699219 C 122.503906 205.503906 123.644531 208.28125 124.859375 211.042969 Z M 143.414062 207.125 C 144.789062 211.519531 146.261719 215.828125 147.792969 220.007812 C 142.578125 221.511719 137.753906 223.363281 133.421875 225.488281 C 130.691406 220.699219 128.164062 215.726562 125.882812 210.578125 C 124.65625 207.816406 123.53125 205.011719 122.460938 202.179688 C 127.730469 199.621094 133.636719 197.363281 140.066406 195.511719 C 141.089844 199.34375 142.1875 203.234375 143.414062 207.125 Z M 161.308594 191.074219 C 162.449219 199.820312 163.777344 208.351562 165.25 216.347656 C 159.546875 217.128906 154.101562 218.242188 149.003906 219.660156 C 146.128906 211.910156 143.488281 203.652344 141.234375 195.179688 C 147.488281 193.417969 154.21875 192.042969 161.308594 191.074219 Z M 159.835938 178.550781 C 160.226562 182.355469 160.671875 186.171875 161.148438 189.929688 C 154.058594 190.886719 147.269531 192.257812 140.929688 194.039062 C 139.964844 190.378906 139.082031 186.679688 138.289062 182.960938 C 144.988281 181.082031 152.226562 179.578125 159.835938 178.550781 Z M 158.566406 164.585938 C 158.765625 167.230469 158.96875 169.660156 159.171875 171.800781 C 159.328125 173.664062 159.519531 175.542969 159.71875 177.410156 C 152.09375 178.421875 144.816406 179.910156 138.027344 181.804688 C 137.148438 177.625 136.367188 173.449219 135.734375 169.269531 C 142.835938 167.257812 150.507812 165.683594 158.566406 164.585938 Z M 158.492188 163.457031 C 150.433594 164.527344 142.738281 166.089844 135.558594 168.113281 C 134.375 160.304688 133.652344 152.570312 133.523438 145.136719 C 140.960938 142.996094 149.003906 141.304688 157.496094 140.148438 C 157.566406 148.550781 158 156.675781 158.492188 163.457031 Z M 184.167969 161.734375 C 175.679688 161.75 167.375 162.300781 159.402344 163.328125 C 158.824219 155.332031 158.476562 147.480469 158.421875 140.019531 C 166.636719 138.917969 175.273438 138.355469 184.167969 138.328125 Z M 210.078125 163.371094 C 202.121094 162.328125 193.800781 161.765625 185.296875 161.734375 L 185.296875 138.328125 C 194.148438 138.339844 202.800781 138.917969 211.074219 140.003906 C 211.015625 147.480469 210.667969 155.34375 210.078125 163.371094 Z M 211.003906 163.484375 C 211.492188 156.691406 211.910156 148.5625 212 140.121094 C 220.433594 141.261719 228.476562 142.9375 235.972656 145.09375 C 235.828125 152.554688 235.105469 160.347656 233.921875 168.199219 C 226.757812 166.160156 219.058594 164.570312 211.003906 163.484375 Z M 209.773438 177.410156 C 209.960938 175.542969 210.148438 173.664062 210.324219 171.800781 C 210.511719 169.675781 210.714844 167.273438 210.914062 164.640625 C 218.871094 165.726562 226.542969 167.332031 233.746094 169.398438 C 233.097656 173.535156 232.332031 177.671875 231.453125 181.804688 C 224.664062 179.910156 217.386719 178.421875 209.773438 177.410156 Z M 208.332031 189.929688 C 208.808594 186.15625 209.253906 182.355469 209.660156 178.523438 C 217.226562 179.550781 224.476562 181.011719 231.21875 182.90625 C 230.410156 186.648438 229.53125 190.367188 228.5625 194.039062 C 222.207031 192.257812 215.4375 190.886719 208.332031 189.929688 Z M 204.230469 216.347656 C 205.703125 208.339844 207.046875 199.808594 208.1875 191.058594 C 215.234375 192.015625 221.976562 193.371094 228.273438 195.136719 C 226.007812 203.625 223.347656 211.910156 220.488281 219.675781 C 215.390625 218.242188 209.933594 217.128906 204.230469 216.347656 Z M 210.324219 243.230469 C 206.726562 242.230469 202.886719 241.421875 198.871094 240.855469 C 200.691406 233.972656 202.4375 226.035156 204.042969 217.460938 C 209.671875 218.226562 215.058594 219.328125 220.101562 220.730469 C 217.023438 228.972656 213.6875 236.589844 210.324219 243.230469 Z M 221.054688 247.261719 C 218.152344 245.84375 214.960938 244.617188 211.507812 243.574219 C 214.914062 236.867188 218.238281 229.246094 221.300781 221.0625 C 226.453125 222.550781 231.234375 224.375 235.507812 226.46875 C 231.207031 233.902344 226.351562 240.855469 221.054688 247.261719 Z M 222.078125 247.78125 C 227.363281 241.378906 232.214844 234.410156 236.519531 226.976562 C 240.449219 228.972656 243.929688 231.242188 246.890625 233.699219 C 246.800781 233.816406 246.714844 233.917969 246.628906 234.03125 C 241.34375 240.769531 235.480469 246.988281 229.3125 252.46875 C 227.234375 250.746094 224.808594 249.171875 222.078125 247.78125 Z M 210.988281 244.601562 C 214.351562 245.601562 217.484375 246.769531 220.300781 248.128906 C 215.148438 254.261719 209.558594 259.871094 203.609375 264.832031 C 202.25 264.179688 200.761719 263.585938 199.175781 263.09375 C 203.03125 258.554688 207.058594 252.191406 210.988281 244.601562 Z M 198.582031 241.96875 C 202.511719 242.503906 206.28125 243.285156 209.804688 244.269531 C 205.804688 252.035156 201.757812 258.382812 197.988281 262.75 C 196.011719 262.199219 193.902344 261.765625 191.707031 261.476562 C 193.976562 257.09375 196.316406 250.34375 198.582031 241.96875 Z M 185.296875 241.046875 C 189.5 241.058594 193.601562 241.335938 197.542969 241.824219 C 195.246094 250.210938 192.847656 256.964844 190.496094 261.332031 C 188.820312 261.144531 187.074219 261.042969 185.296875 261.027344 Z M 178.984375 261.332031 C 176.632812 256.964844 174.234375 250.210938 171.953125 241.824219 C 175.851562 241.320312 179.953125 241.058594 184.167969 241.03125 L 184.167969 261.027344 C 182.40625 261.042969 180.660156 261.144531 178.984375 261.332031 Z M 171.503906 262.75 C 167.734375 258.382812 163.691406 252.035156 159.691406 244.269531 C 163.199219 243.300781 166.957031 242.519531 170.914062 241.96875 C 173.164062 250.355469 175.503906 257.09375 177.785156 261.476562 C 175.578125 261.75 173.46875 262.183594 171.503906 262.75 Z M 165.886719 264.832031 C 159.9375 259.871094 154.347656 254.261719 149.175781 248.144531 C 152.007812 246.800781 155.128906 245.613281 158.507812 244.601562 C 162.433594 252.191406 166.464844 258.554688 170.304688 263.082031 C 168.71875 263.585938 167.230469 264.164062 165.886719 264.832031 Z M 147.402344 247.769531 C 144.6875 249.171875 142.246094 250.746094 140.167969 252.453125 C 134 246.972656 128.136719 240.769531 122.863281 234.03125 C 122.765625 233.917969 122.675781 233.800781 122.589844 233.683594 C 125.523438 231.257812 129.015625 229.015625 132.972656 227.003906 C 137.277344 234.421875 142.117188 241.378906 147.402344 247.769531 Z M 157.972656 243.574219 C 154.535156 244.601562 151.328125 245.832031 148.441406 247.25 C 143.140625 240.855469 138.304688 233.917969 134 226.5 C 138.246094 224.417969 143.027344 222.609375 148.195312 221.105469 C 151.257812 229.261719 154.578125 236.882812 157.972656 243.574219 Z M 170.609375 240.855469 C 166.59375 241.421875 162.765625 242.230469 159.171875 243.230469 C 155.804688 236.589844 152.484375 228.972656 149.410156 220.746094 C 154.417969 219.355469 159.792969 218.257812 165.453125 217.476562 C 167.054688 226.035156 168.804688 233.972656 170.609375 240.855469 Z M 184.167969 216.191406 L 184.167969 239.902344 C 179.867188 239.933594 175.679688 240.222656 171.648438 240.726562 C 169.816406 233.84375 168.039062 225.90625 166.421875 217.347656 C 172.097656 216.609375 178.046875 216.21875 184.167969 216.191406 Z M 184.167969 189.511719 L 184.167969 215.0625 C 178.003906 215.078125 171.980469 215.480469 166.21875 216.21875 C 164.714844 208.207031 163.375 199.664062 162.234375 190.945312 C 169.25 190.03125 176.601562 189.542969 184.167969 189.511719 Z M 184.167969 176.890625 L 184.167969 188.382812 C 176.585938 188.398438 169.195312 188.890625 162.089844 189.800781 C 161.597656 186.042969 161.148438 182.238281 160.746094 178.40625 C 168.242188 177.453125 176.082031 176.917969 184.167969 176.890625 Z M 184.167969 175.761719 C 176.097656 175.777344 168.195312 176.296875 160.628906 177.28125 C 160.195312 173 159.804688 168.707031 159.488281 164.46875 C 167.375 163.441406 175.648438 162.894531 184.167969 162.863281 Z M 185.296875 175.761719 L 185.296875 162.878906 C 193.699219 162.90625 201.992188 163.484375 209.992188 164.527344 C 209.6875 168.75 209.296875 173.015625 208.851562 177.28125 C 201.28125 176.296875 193.382812 175.777344 185.296875 175.761719 Z M 185.296875 188.382812 L 185.296875 176.890625 C 193.355469 176.917969 201.210938 177.425781 208.75 178.394531 C 208.34375 182.226562 207.898438 186.042969 207.40625 189.816406 C 200.300781 188.890625 192.890625 188.398438 185.296875 188.382812 Z M 185.296875 215.0625 L 185.296875 189.511719 C 192.835938 189.527344 200.199219 190.019531 207.261719 190.929688 C 206.121094 199.664062 204.761719 208.207031 203.277344 216.234375 C 197.5 215.480469 191.460938 215.078125 185.296875 215.0625 Z M 185.296875 216.191406 C 191.40625 216.21875 197.355469 216.59375 203.074219 217.332031 C 201.457031 225.90625 199.679688 233.84375 197.832031 240.742188 C 193.800781 240.222656 189.597656 239.933594 185.296875 239.902344 Z M 161.4375 267.605469 C 154.507812 263.832031 147.574219 258.945312 141.003906 253.191406 C 143.027344 251.558594 145.421875 250.039062 148.136719 248.664062 C 153.292969 254.796875 158.867188 260.390625 164.789062 265.394531 C 163.546875 266.058594 162.421875 266.796875 161.4375 267.605469 Z M 204.691406 265.394531 C 210.625 260.40625 216.199219 254.796875 221.34375 248.664062 C 224.027344 250.039062 226.410156 251.558594 228.449219 253.234375 C 221.875 258.960938 214.972656 263.847656 208.042969 267.621094 C 207.058594 266.8125 205.949219 266.074219 204.691406 265.394531 Z M 196.503906 290.367188 C 195.363281 290.105469 194.265625 289.511719 193.210938 288.617188 C 195.074219 288.3125 196.835938 287.90625 198.496094 287.429688 C 200.660156 288.296875 202.785156 288.832031 205.066406 289.035156 C 202.25 289.597656 199.375 290.03125 196.503906 290.367188 Z M 207.953125 280.460938 C 203.652344 284.785156 194.523438 287.574219 184.734375 287.574219 C 174.941406 287.574219 165.828125 284.785156 161.511719 280.460938 C 159.835938 278.785156 158.984375 276.992188 158.984375 275.15625 C 158.984375 268.285156 170.535156 262.707031 184.734375 262.707031 C 194.523438 262.707031 203.652344 265.511719 207.953125 269.832031 C 209.644531 271.511719 210.496094 273.304688 210.496094 275.15625 C 210.496094 276.992188 209.644531 278.785156 207.953125 280.460938 Z M 96.0625 233.0625 C 96.121094 229.59375 97 226.222656 98.601562 222.972656 C 98.878906 223.460938 99.152344 223.941406 99.457031 224.429688 C 103.511719 231.023438 108.265625 237.140625 113.609375 242.738281 C 112.324219 245.28125 111.585938 247.898438 111.398438 250.574219 C 105.867188 245.613281 100.625 239.816406 96.0625 233.0625 Z M 112.46875 251.527344 C 112.539062 248.796875 113.21875 246.148438 114.445312 243.605469 C 120.324219 249.589844 126.910156 254.984375 134.128906 259.683594 C 133.21875 261.503906 132.714844 263.371094 132.585938 265.277344 C 125.914062 261.75 119.007812 257.226562 112.46875 251.527344 Z M 138.878906 277.222656 C 137.726562 276.078125 136.785156 274.894531 136.019531 273.695312 C 143.71875 276.484375 151.429688 278.207031 158.304688 278.984375 C 158.695312 279.722656 159.1875 280.417969 159.792969 281.113281 C 153.554688 281.386719 146.765625 280.417969 140.195312 278.453125 C 139.746094 278.046875 139.285156 277.640625 138.878906 277.222656 Z M 155.488281 286.808594 C 154.390625 286.433594 153.308594 286.027344 152.269531 285.609375 C 155.894531 286.011719 159.632812 285.78125 165.238281 285.132812 C 166.480469 285.78125 167.820312 286.359375 169.28125 286.851562 C 166.203125 287.894531 163.128906 288.210938 159.375 287.863281 C 159.359375 287.863281 159.328125 287.863281 159.328125 287.863281 C 158.042969 287.546875 156.757812 287.183594 155.488281 286.808594 Z M 213.976562 286.808594 C 212.707031 287.183594 211.433594 287.53125 210.148438 287.863281 C 210.136719 287.863281 210.136719 287.863281 210.121094 287.863281 C 206.367188 288.210938 203.320312 287.894531 200.257812 286.867188 C 201.714844 286.359375 203.074219 285.78125 204.300781 285.144531 C 209.859375 285.78125 213.585938 286.011719 217.199219 285.609375 C 216.15625 286.027344 215.074219 286.433594 213.976562 286.808594 Z M 229.269531 278.453125 C 222.699219 280.417969 215.925781 281.386719 209.714844 281.113281 C 210.308594 280.417969 210.800781 279.722656 211.203125 278.984375 C 218.050781 278.207031 225.761719 276.5 233.457031 273.707031 C 232.679688 274.894531 231.738281 276.078125 230.597656 277.222656 C 230.179688 277.640625 229.71875 278.046875 229.269531 278.453125 Z M 236.882812 265.292969 C 236.765625 263.371094 236.246094 261.519531 235.335938 259.683594 C 242.570312 254.984375 249.15625 249.605469 255.035156 243.605469 C 256.289062 246.179688 256.941406 248.839844 257 251.542969 C 250.457031 257.226562 243.554688 261.765625 236.882812 265.292969 Z M 258.082031 250.589844 C 257.894531 247.914062 257.15625 245.296875 255.859375 242.75 C 261.230469 237.140625 265.980469 231.023438 270.039062 224.429688 C 270.328125 223.941406 270.601562 223.460938 270.890625 222.972656 C 272.507812 226.253906 273.359375 229.636719 273.402344 233.09375 C 268.839844 239.832031 263.613281 245.628906 258.082031 250.589844 Z M 274.457031 231.457031 C 274.183594 228.160156 273.214844 224.953125 271.585938 221.8125 C 273.347656 218.734375 274.964844 215.609375 276.378906 212.429688 C 278.15625 216 279.066406 219.644531 279.109375 223.390625 C 277.664062 226.210938 276.105469 228.898438 274.457031 231.457031 Z M 270.660156 186.300781 C 266.386719 182.671875 261.273438 179.375 255.511719 176.457031 C 257 168.675781 257.820312 160.984375 257.921875 153.59375 C 263.914062 156.644531 269.160156 160.117188 273.519531 163.917969 C 273.519531 170.789062 272.683594 177.859375 270.964844 185.085938 C 270.875 185.492188 270.761719 185.898438 270.660156 186.300781 Z M 220.433594 94.601562 C 223.507812 97.363281 226.121094 100.761719 228.304688 104.765625 C 222.035156 103.03125 215.335938 101.6875 208.34375 100.746094 C 207.320312 97.058594 206.035156 93.835938 204.445312 91.277344 C 210.035156 92.058594 215.390625 93.171875 220.433594 94.601562 Z M 149.003906 94.644531 C 154.042969 93.214844 159.429688 92.085938 165.035156 91.289062 C 163.445312 93.851562 162.175781 97.074219 161.148438 100.746094 C 154.160156 101.699219 147.460938 103.046875 141.191406 104.765625 C 143.34375 100.804688 145.941406 97.40625 149.003906 94.644531 Z M 98.515625 185.085938 C 96.8125 177.859375 95.976562 170.773438 95.960938 163.90625 C 100.277344 160.160156 105.519531 156.703125 111.558594 153.640625 C 111.671875 160.96875 112.480469 168.574219 113.953125 176.296875 C 108.179688 179.203125 103.066406 182.46875 98.777344 186.085938 C 98.691406 185.753906 98.601562 185.421875 98.515625 185.085938 Z M 85.777344 211.792969 C 85.777344 207.816406 86.746094 203.941406 88.582031 200.242188 C 89.664062 203.886719 90.992188 207.5 92.523438 211.054688 C 90.734375 214.367188 89.679688 217.78125 89.347656 221.25 C 88.046875 218.53125 86.863281 215.699219 85.808594 212.734375 C 85.792969 212.429688 85.777344 212.113281 85.777344 211.792969 Z M 91.121094 229.507812 C 90.820312 228.351562 90.617188 227.191406 90.5 226.023438 C 91.886719 228.582031 93.359375 231.039062 94.921875 233.367188 C 94.921875 233.382812 94.921875 233.394531 94.921875 233.410156 C 94.921875 235.074219 95.109375 236.722656 95.46875 238.355469 C 93.867188 235.476562 92.421875 232.527344 91.121094 229.507812 Z M 102.761719 249.5625 C 102.691406 249.488281 102.617188 249.429688 102.53125 249.402344 C 101 247.320312 99.570312 245.179688 98.214844 242.996094 C 97.027344 240.410156 96.320312 237.761719 96.121094 235.089844 C 100.683594 241.59375 105.867188 247.203125 111.324219 252.003906 C 111.339844 254.652344 111.917969 257.269531 113.03125 259.8125 C 109.246094 256.804688 105.75 253.40625 102.761719 249.5625 Z M 120.554688 268.300781 C 119.066406 266.882812 117.765625 265.421875 116.683594 263.917969 C 122.242188 267.695312 128.25 270.714844 134.332031 273.058594 C 135.167969 274.632812 136.296875 276.152344 137.726562 277.640625 C 133.074219 276.035156 128.613281 273.941406 124.582031 271.425781 C 123.226562 270.410156 121.882812 269.386719 120.554688 268.300781 Z M 248.925781 268.300781 C 247.566406 269.398438 246.183594 270.46875 244.78125 271.496094 C 240.765625 274.011719 236.304688 276.078125 231.683594 277.671875 C 233.097656 276.210938 234.238281 274.664062 235.105469 273.074219 C 241.183594 270.746094 247.191406 267.722656 252.753906 263.949219 C 251.683594 265.4375 250.398438 266.898438 248.925781 268.300781 Z M 266.933594 249.402344 C 266.863281 249.429688 266.789062 249.488281 266.730469 249.5625 C 263.726562 253.421875 260.21875 256.820312 256.433594 259.84375 C 257.546875 257.28125 258.125 254.664062 258.140625 252.019531 C 263.597656 247.21875 268.78125 241.609375 273.347656 235.132812 C 273.144531 237.804688 272.421875 240.4375 271.253906 243.027344 C 269.894531 245.195312 268.464844 247.320312 266.933594 249.402344 Z M 273.996094 238.355469 C 274.355469 236.734375 274.546875 235.074219 274.546875 233.410156 C 276.105469 231.066406 277.578125 228.640625 278.964844 226.066406 C 278.847656 227.222656 278.644531 228.363281 278.359375 229.519531 C 277.042969 232.527344 275.597656 235.492188 273.996094 238.355469 Z M 277.835938 147.234375 C 275.945312 144.773438 273.664062 142.417969 271.078125 140.164062 C 270.183594 137.371094 269.128906 134.625 267.917969 131.949219 C 269.78125 133.742188 271.441406 135.59375 272.855469 137.53125 C 274.703125 140.667969 276.351562 143.921875 277.835938 147.234375 Z M 246.585938 111.433594 C 241.472656 109.015625 235.839844 106.921875 229.804688 105.1875 C 227.839844 101.367188 225.5 98.070312 222.773438 95.265625 C 226.785156 96.511719 230.585938 97.96875 234.109375 99.605469 C 235.480469 100.371094 236.839844 101.152344 238.179688 101.992188 C 241.359375 104.59375 244.175781 107.757812 246.585938 111.433594 Z M 200.171875 88.023438 C 200.820312 88.542969 201.425781 89.136719 202.019531 89.828125 C 196.605469 89.179688 191.015625 88.832031 185.296875 88.804688 L 185.296875 86.878906 C 190.320312 86.894531 195.289062 87.285156 200.171875 88.023438 Z M 184.167969 86.867188 L 184.167969 88.804688 C 178.480469 88.832031 172.875 89.195312 167.460938 89.84375 C 168.039062 89.152344 168.660156 88.542969 169.308594 88.023438 C 174.160156 87.285156 179.128906 86.894531 184.167969 86.867188 Z M 96.695312 137.472656 C 98.097656 135.578125 99.714844 133.742188 101.550781 131.992188 C 100.320312 134.695312 99.265625 137.472656 98.371094 140.308594 C 95.742188 142.578125 93.476562 144.976562 91.585938 147.4375 C 93.117188 144.007812 94.820312 140.683594 96.695312 137.472656 Z M 82.789062 187.023438 C 82.976562 184.175781 83.640625 181.386719 84.769531 178.667969 C 85.144531 185.363281 86.285156 192.042969 88.117188 198.621094 C 86.242188 202.078125 85.128906 205.632812 84.78125 209.292969 C 83.453125 202.671875 82.761719 195.859375 82.761719 188.960938 C 82.761719 188.3125 82.773438 187.660156 82.789062 187.023438 Z M 81.027344 188.71875 C 81.027344 188.789062 81.042969 188.847656 81.070312 188.917969 C 81.070312 188.933594 81.054688 188.949219 81.054688 188.960938 C 81.054688 216.679688 91.84375 242.75 111.425781 262.359375 C 131.011719 281.964844 157.035156 292.75 184.734375 292.75 C 241.863281 292.75 288.351562 246.234375 288.410156 189.050781 C 288.453125 188.949219 288.480469 188.832031 288.480469 188.71875 C 288.480469 187.804688 288.421875 186.910156 288.335938 186.011719 C 287.601562 159.394531 276.929688 134.464844 258.039062 115.566406 C 238.457031 95.960938 212.433594 85.160156 184.734375 85.160156 C 157.046875 85.160156 131.011719 95.960938 111.425781 115.566406 C 92.421875 134.597656 81.734375 159.699219 81.128906 186.519531 C 81.054688 187.257812 81.027344 187.980469 81.027344 188.71875 " fill-opacity="1" fill-rule="nonzero"/><g clip-path="url(#73ca25e0d6)"><path fill="#ffffff" d="M 294.488281 209.175781 C 292.914062 209.308594 291.902344 210.363281 292.222656 211.519531 C 292.539062 212.691406 294.070312 213.527344 295.644531 213.398438 C 306.648438 212.472656 315.488281 210.8125 321.566406 208.441406 C 328.023438 205.921875 331.558594 202.570312 331.558594 198.390625 C 331.558594 189.714844 315.039062 179.652344 288.351562 170.410156 C 262.585938 161.488281 227.046875 153.046875 187.835938 147.21875 C 168.023438 144.285156 149.191406 142.289062 132.078125 141.1875 C 107.296875 139.597656 86.066406 139.917969 70.746094 142 C 54.484375 144.210938 44.5625 148.5625 43.539062 154.953125 C 43.480469 155.332031 43.449219 155.707031 43.449219 156.066406 C 43.449219 159.667969 46.136719 163.429688 51.105469 167.230469 C 55.886719 170.859375 62.847656 174.605469 71.597656 178.304688 C 73.042969 178.914062 74.789062 178.609375 75.496094 177.597656 C 76.203125 176.601562 75.613281 175.300781 74.167969 174.675781 C 65.949219 171.207031 59.464844 167.738281 55.148438 164.441406 C 51.335938 161.535156 49.269531 158.828125 49.269531 156.445312 C 49.269531 156.210938 49.300781 155.996094 49.328125 155.808594 C 50.050781 151.3125 58.414062 148.058594 72.261719 146.179688 C 87.050781 144.152344 107.757812 143.878906 132.078125 145.425781 C 149.003906 146.511719 167.632812 148.492188 187.171875 151.398438 C 225.90625 157.136719 260.941406 165.453125 286.257812 174.214844 C 310.632812 182.660156 325.726562 191.261719 325.726562 198.015625 C 325.726562 200.601562 323.167969 202.828125 318.492188 204.652344 C 312.988281 206.792969 304.800781 208.308594 294.488281 209.175781 " fill-opacity="1" fill-rule="nonzero"/></g><g clip-path="url(#693ce65f0f)"><path fill="#ffffff" d="M 291.789062 82.789062 L 291.933594 82.789062 C 292.914062 95.730469 303.226562 106.066406 316.152344 107.035156 L 316.152344 107.195312 C 303.226562 108.164062 292.914062 118.503906 291.933594 131.445312 L 291.789062 131.445312 C 290.804688 118.503906 280.496094 108.164062 267.570312 107.195312 L 267.570312 107.035156 C 280.496094 106.066406 290.804688 95.730469 291.789062 82.789062 " fill-opacity="1" fill-rule="evenodd"/></g><path fill="#ffffff" d="M 316.542969 127.4375 L 316.613281 127.4375 C 317.019531 132.949219 321.40625 137.34375 326.894531 137.75 L 326.894531 137.820312 C 321.40625 138.226562 317.019531 142.621094 316.613281 148.117188 L 316.542969 148.117188 C 316.136719 142.621094 311.746094 138.226562 306.246094 137.820312 L 306.246094 137.75 C 311.746094 137.34375 316.136719 132.949219 316.542969 127.4375 " fill-opacity="1" fill-rule="evenodd"/><g fill="#231f20" fill-opacity="1"><g transform="translate(86.591867, 180.497895)"><g><path d="M 36.976562 -58.605469 C 38.683594 -58.726562 40.203125 -58.316406 41.535156 -57.378906 C 42.460938 -56.722656 43.171875 -55.890625 43.675781 -54.875 C 44.066406 -54.074219 44.296875 -53.222656 44.359375 -52.316406 L 47.800781 -3.960938 C 47.867188 -3.054688 47.757812 -2.179688 47.484375 -1.332031 C 47.128906 -0.253906 46.542969 0.671875 45.722656 1.449219 C 44.535156 2.570312 43.085938 3.1875 41.378906 3.3125 L 33.21875 3.890625 C 32.59375 3.9375 31.925781 3.882812 31.207031 3.730469 C 30.007812 3.480469 28.976562 2.980469 28.117188 2.234375 L 27.703125 1.875 L 2.28125 -29.523438 L 7.128906 -33.449219 L 13.351562 -33.890625 L 15.28125 -6.765625 L -6.625 -5.207031 L -9.703125 -48.472656 C -9.761719 -49.308594 -9.675781 -50.121094 -9.449219 -50.90625 C -9.140625 -51.960938 -8.605469 -52.882812 -7.847656 -53.671875 C -6.644531 -54.921875 -5.140625 -55.609375 -3.34375 -55.738281 L 4.882812 -56.324219 C 5.308594 -56.351562 5.753906 -56.347656 6.222656 -56.300781 C 7.109375 -56.21875 7.941406 -55.972656 8.714844 -55.558594 C 9.792969 -54.988281 10.640625 -54.179688 11.261719 -53.132812 L 5.894531 -49.953125 L 10.738281 -53.886719 L 35.875 -22.921875 L 31.03125 -18.988281 L 24.808594 -18.546875 L 22.515625 -50.761719 C 22.445312 -51.738281 22.574219 -52.675781 22.902344 -53.574219 C 23.296875 -54.664062 23.929688 -55.589844 24.804688 -56.351562 C 25.96875 -57.359375 27.367188 -57.921875 29 -58.039062 Z M 37.859375 -46.160156 L 29.882812 -45.59375 C 31.019531 -45.671875 32.050781 -46.117188 32.980469 -46.925781 C 33.742188 -47.582031 34.292969 -48.382812 34.632812 -49.332031 C 34.90625 -50.089844 35.015625 -50.863281 34.960938 -51.648438 L 38.65625 0.304688 L 0.757812 -46.378906 L 0.523438 -46.773438 C 1.097656 -45.808594 1.878906 -45.0625 2.871094 -44.535156 C 3.558594 -44.171875 4.285156 -43.953125 5.046875 -43.878906 C 5.265625 -43.859375 5.503906 -43.859375 5.765625 -43.878906 L -2.457031 -43.292969 C -1.953125 -43.328125 -1.453125 -43.441406 -0.957031 -43.628906 C -0.160156 -43.929688 0.539062 -44.390625 1.136719 -45.011719 C 1.800781 -45.703125 2.265625 -46.5 2.53125 -47.414062 C 2.71875 -48.058594 2.789062 -48.707031 2.742188 -49.355469 L 5.378906 -12.316406 L -0.84375 -11.871094 L -1.289062 -18.097656 L 8.175781 -18.769531 L 8.617188 -12.546875 L 2.394531 -12.101562 L -0.5 -52.785156 L 37.054688 -6.402344 L 32.203125 -2.476562 L 36.292969 -7.191406 C 35.523438 -7.859375 34.683594 -8.289062 33.777344 -8.480469 C 33.351562 -8.566406 32.871094 -8.59375 32.332031 -8.554688 L 40.496094 -9.136719 C 40.050781 -9.105469 39.609375 -9.011719 39.167969 -8.855469 C 38.414062 -8.589844 37.746094 -8.179688 37.152344 -7.625 C 36.4375 -6.949219 35.929688 -6.144531 35.621094 -5.207031 C 35.394531 -4.503906 35.304688 -3.792969 35.355469 -3.074219 L 31.914062 -51.433594 C 31.964844 -50.710938 32.15625 -50.019531 32.480469 -49.359375 C 32.917969 -48.476562 33.535156 -47.75 34.339844 -47.183594 C 35.003906 -46.714844 35.726562 -46.402344 36.507812 -46.25 C 36.96875 -46.160156 37.417969 -46.128906 37.859375 -46.160156 Z M 37.859375 -46.160156 "/></g></g></g><g fill="#231f20" fill-opacity="1"><g transform="translate(129.19538, 177.47317)"><g><path d="M 44.367188 -5.042969 C 45.011719 -3.855469 45.273438 -2.59375 45.152344 -1.257812 C 45.046875 -0.0742188 44.648438 1.011719 43.957031 2.003906 C 43.335938 2.894531 42.550781 3.59375 41.609375 4.105469 C 40.664062 4.621094 39.648438 4.894531 38.566406 4.929688 L 30.015625 5.222656 C 28.609375 5.269531 27.328125 4.933594 26.160156 4.210938 C 24.851562 3.402344 23.925781 2.265625 23.382812 0.808594 L 12.695312 -26.386719 L 18.503906 -28.667969 L 24.457031 -26.808594 L 15.730469 1.152344 L 9.777344 -0.703125 L 15.960938 0.113281 C 15.835938 1.058594 15.523438 1.9375 15.027344 2.742188 C 14.503906 3.585938 13.824219 4.277344 12.988281 4.816406 C 11.921875 5.507812 10.71875 5.878906 9.382812 5.921875 L 0.894531 6.210938 C -0.0898438 6.246094 -1.023438 6.09375 -1.910156 5.757812 C -3.238281 5.25 -4.300781 4.40625 -5.089844 3.234375 C -5.734375 2.277344 -6.109375 1.234375 -6.21875 0.105469 C -6.335938 -1.09375 -6.140625 -2.242188 -5.636719 -3.34375 L 0.0351562 -0.746094 L -5.855469 -2.800781 L 11.273438 -51.890625 L 17.164062 -49.835938 L 11.179688 -51.605469 C 11.65625 -53.207031 12.589844 -54.457031 13.980469 -55.359375 C 15.050781 -56.050781 16.242188 -56.417969 17.558594 -56.464844 C 18.875 -56.507812 20.089844 -56.222656 21.203125 -55.605469 C 22.652344 -54.800781 23.667969 -53.617188 24.25 -52.050781 L 18.402344 -49.878906 L 24.136719 -52.335938 L 44.621094 -4.523438 L 38.886719 -2.066406 Z M 33.265625 0.65625 L 12.609375 -47.5625 L 12.554688 -47.707031 C 13.042969 -46.386719 13.910156 -45.382812 15.148438 -44.695312 C 16.050781 -44.195312 16.996094 -43.960938 17.980469 -43.992188 C 18.96875 -44.027344 19.894531 -44.324219 20.761719 -44.882812 C 21.949219 -45.65625 22.746094 -46.714844 23.144531 -48.066406 L 23.101562 -47.921875 L 5.832031 1.585938 L 5.707031 1.851562 C 6.136719 0.917969 6.300781 -0.0625 6.199219 -1.097656 C 6.105469 -2.0625 5.792969 -2.941406 5.257812 -3.734375 C 4.578125 -4.746094 3.671875 -5.46875 2.539062 -5.902344 C 1.855469 -6.164062 1.164062 -6.28125 0.46875 -6.257812 L 8.957031 -6.546875 C 7.992188 -6.515625 7.078125 -6.21875 6.210938 -5.65625 C 5.476562 -5.179688 4.878906 -4.570312 4.414062 -3.820312 C 3.976562 -3.109375 3.699219 -2.34375 3.589844 -1.519531 L 3.660156 -2.050781 L 17.828125 -47.445312 L 35.082031 -3.539062 C 34.628906 -4.753906 33.84375 -5.707031 32.726562 -6.398438 C 31.75 -7.003906 30.703125 -7.285156 29.589844 -7.25 L 38.140625 -7.539062 C 37.261719 -7.507812 36.433594 -7.28125 35.652344 -6.855469 C 34.871094 -6.433594 34.226562 -5.859375 33.726562 -5.140625 C 33.152344 -4.320312 32.820312 -3.398438 32.726562 -2.382812 C 32.621094 -1.210938 32.847656 -0.113281 33.402344 0.910156 Z M 33.265625 0.65625 "/></g></g></g><g fill="#231f20" fill-opacity="1"><g transform="translate(169.134695, 176.176263)"><g><path d="M 10.136719 -37.878906 L 25.800781 -37.917969 L 25.890625 -0.621094 C 25.890625 0.355469 25.699219 1.28125 25.3125 2.160156 C 24.84375 3.21875 24.148438 4.097656 23.222656 4.796875 C 21.992188 5.722656 20.558594 6.1875 18.921875 6.191406 L 10.925781 6.210938 C 9.214844 6.214844 7.726562 5.703125 6.460938 4.671875 C 5.582031 3.960938 4.929688 3.078125 4.5 2.027344 C 4.160156 1.207031 3.992188 0.339844 3.988281 -0.566406 L 3.898438 -37.867188 Z M 10.167969 -25.402344 L 10.152344 -31.640625 L 16.390625 -31.65625 L 16.464844 -0.597656 C 16.464844 -1.320312 16.324219 -2.023438 16.042969 -2.707031 C 15.671875 -3.617188 15.101562 -4.382812 14.339844 -5.003906 C 13.707031 -5.515625 13.007812 -5.875 12.238281 -6.082031 C 11.789062 -6.207031 11.339844 -6.265625 10.894531 -6.265625 L 18.894531 -6.285156 C 17.753906 -6.28125 16.695312 -5.910156 15.710938 -5.167969 C 14.910156 -4.5625 14.304688 -3.800781 13.898438 -2.882812 C 13.574219 -2.144531 13.410156 -1.378906 13.414062 -0.589844 L 13.335938 -31.648438 L 19.574219 -31.664062 L 19.589844 -25.425781 Z M 0.597656 -34.867188 C -1.113281 -34.863281 -2.601562 -35.375 -3.867188 -36.40625 C -4.746094 -37.117188 -5.398438 -38 -5.828125 -39.046875 C -6.167969 -39.871094 -6.335938 -40.738281 -6.339844 -41.644531 L -6.355469 -49.023438 C -6.359375 -49.929688 -6.195312 -50.796875 -5.859375 -51.621094 C -5.433594 -52.671875 -4.785156 -53.558594 -3.910156 -54.277344 C -2.652344 -55.3125 -1.164062 -55.832031 0.546875 -55.835938 L 29.003906 -55.90625 C 30.714844 -55.910156 32.203125 -55.394531 33.46875 -54.367188 C 34.347656 -53.652344 35 -52.769531 35.429688 -51.722656 C 35.769531 -50.898438 35.9375 -50.03125 35.941406 -49.125 L 35.957031 -41.746094 C 35.960938 -40.839844 35.792969 -39.972656 35.460938 -39.148438 C 35.035156 -38.097656 34.386719 -37.214844 33.511719 -36.496094 C 32.25 -35.457031 30.765625 -34.9375 29.054688 -34.933594 Z M 0.566406 -47.34375 L 29.023438 -47.410156 C 28.578125 -47.410156 28.132812 -47.347656 27.679688 -47.222656 C 26.914062 -47.011719 26.214844 -46.648438 25.585938 -46.132812 C 24.828125 -45.507812 24.261719 -44.738281 23.894531 -43.828125 C 23.617188 -43.144531 23.480469 -42.4375 23.480469 -41.71875 L 23.460938 -49.09375 C 23.464844 -48.371094 23.605469 -47.671875 23.886719 -46.984375 C 24.257812 -46.078125 24.828125 -45.3125 25.589844 -44.691406 C 26.21875 -44.175781 26.921875 -43.816406 27.6875 -43.609375 C 28.140625 -43.488281 28.589844 -43.425781 29.03125 -43.425781 L 0.578125 -43.359375 C 1.019531 -43.359375 1.46875 -43.421875 1.921875 -43.546875 C 2.6875 -43.757812 3.386719 -44.121094 4.011719 -44.636719 C 4.773438 -45.261719 5.339844 -46.03125 5.707031 -46.941406 C 5.984375 -47.628906 6.121094 -48.332031 6.121094 -49.054688 L 6.136719 -41.675781 C 6.136719 -42.398438 5.996094 -43.101562 5.714844 -43.785156 C 5.339844 -44.695312 4.773438 -45.457031 4.011719 -46.082031 C 3.378906 -46.59375 2.679688 -46.953125 1.910156 -47.160156 C 1.457031 -47.285156 1.011719 -47.34375 0.566406 -47.34375 Z M 0.566406 -47.34375 "/></g></g></g><g fill="#231f20" fill-opacity="1"><g transform="translate(199.736139, 176.148692)"><g><path d="M 20.511719 -14.308594 C 22.226562 -14.273438 23.703125 -13.722656 24.941406 -12.664062 C 25.800781 -11.929688 26.4375 -11.035156 26.839844 -9.976562 C 27.160156 -9.144531 27.308594 -8.273438 27.289062 -7.367188 L 27.136719 0.0078125 C 27.117188 0.914062 26.933594 1.777344 26.578125 2.59375 C 26.128906 3.636719 25.460938 4.503906 24.570312 5.203125 C 23.285156 6.210938 21.789062 6.695312 20.074219 6.660156 L 0.550781 6.25 C -1.160156 6.214844 -2.636719 5.667969 -3.878906 4.609375 C -4.738281 3.875 -5.371094 2.976562 -5.777344 1.917969 C -6.09375 1.089844 -6.246094 0.21875 -6.226562 -0.6875 L -6.070312 -8.0625 C -6.054688 -8.972656 -5.867188 -9.832031 -5.515625 -10.652344 C -5.066406 -11.691406 -4.394531 -12.558594 -3.503906 -13.257812 C -2.21875 -14.265625 -0.722656 -14.75 0.988281 -14.714844 L 6.070312 -14.609375 L 5.941406 -8.371094 L -0.296875 -8.5 L 0.0703125 -26.042969 L 0.382812 -41.105469 L 0.691406 -55.832031 L 22.648438 -55.375 L 22.34375 -40.644531 L 22.027344 -25.582031 L 21.660156 -8.042969 L 15.425781 -8.171875 L 15.554688 -14.410156 Z M 20.253906 -1.832031 L 9.058594 -2.066406 L 9.554688 -25.84375 L 9.867188 -40.90625 L 10.042969 -49.398438 L 16.28125 -49.265625 L 16.152344 -43.03125 L 6.667969 -43.226562 L 6.800781 -49.464844 L 13.035156 -49.335938 L 12.859375 -40.84375 L 12.542969 -25.78125 L 12.046875 -2.003906 L 0.730469 -2.238281 C 1.171875 -2.230469 1.621094 -2.28125 2.074219 -2.398438 C 2.847656 -2.589844 3.554688 -2.9375 4.195312 -3.4375 C 4.96875 -4.046875 5.550781 -4.800781 5.941406 -5.703125 C 6.234375 -6.382812 6.386719 -7.082031 6.402344 -7.804688 L 6.25 -0.425781 C 6.265625 -1.148438 6.140625 -1.855469 5.875 -2.546875 C 5.523438 -3.464844 4.972656 -4.242188 4.222656 -4.882812 C 3.605469 -5.40625 2.914062 -5.785156 2.152344 -6.011719 C 1.703125 -6.144531 1.253906 -6.214844 0.8125 -6.222656 L 20.335938 -5.816406 C 19.894531 -5.824219 19.445312 -5.773438 18.988281 -5.660156 C 18.214844 -5.464844 17.511719 -5.117188 16.871094 -4.617188 C 16.097656 -4.007812 15.515625 -3.253906 15.125 -2.351562 C 14.832031 -1.675781 14.675781 -0.972656 14.660156 -0.253906 L 14.816406 -7.628906 C 14.800781 -6.90625 14.925781 -6.199219 15.191406 -5.511719 C 15.542969 -4.59375 16.09375 -3.8125 16.839844 -3.175781 C 17.457031 -2.648438 18.148438 -2.269531 18.914062 -2.046875 C 19.363281 -1.914062 19.808594 -1.839844 20.253906 -1.832031 Z M 20.253906 -1.832031 "/></g></g></g><g fill="#231f20" fill-opacity="1"><g transform="translate(220.898799, 176.481675)"><g><path d="M 28 -45.339844 L 46.628906 -44.46875 L 25.601562 3.140625 C 24.921875 4.628906 23.871094 5.726562 22.453125 6.433594 C 21.390625 6.957031 20.25 7.191406 19.03125 7.136719 C 17.90625 7.082031 16.863281 6.789062 15.90625 6.253906 C 14.75 5.605469 13.855469 4.695312 13.222656 3.519531 L 12.964844 3.042969 L -3.578125 -46.832031 C -3.902344 -47.761719 -4.007812 -48.730469 -3.902344 -49.742188 C -3.765625 -51.023438 -3.300781 -52.167969 -2.503906 -53.179688 C -1.707031 -54.191406 -0.703125 -54.910156 0.511719 -55.347656 C 1.375 -55.65625 2.28125 -55.789062 3.226562 -55.746094 L 11.648438 -55.351562 C 12.984375 -55.289062 14.183594 -54.90625 15.242188 -54.199219 C 16.070312 -53.648438 16.742188 -52.949219 17.25 -52.097656 C 17.742188 -51.285156 18.042969 -50.40625 18.15625 -49.457031 L 11.960938 -48.71875 L 17.925781 -50.542969 L 26.324219 -23.09375 L 20.359375 -21.265625 L 14.589844 -23.644531 L 23.613281 -45.542969 Z M 27.417969 -32.875 L 27.707031 -39.109375 L 33.476562 -36.730469 L 19.488281 -2.78125 L 5.832031 -47.425781 L 5.765625 -47.980469 C 5.863281 -47.15625 6.125 -46.386719 6.558594 -45.667969 C 7.011719 -44.917969 7.601562 -44.296875 8.332031 -43.8125 C 9.1875 -43.242188 10.101562 -42.933594 11.066406 -42.886719 L 2.644531 -43.28125 C 3.34375 -43.25 4.035156 -43.355469 4.71875 -43.601562 C 5.753906 -43.972656 6.617188 -44.589844 7.300781 -45.460938 C 7.988281 -46.335938 8.390625 -47.324219 8.507812 -48.429688 C 8.59375 -49.265625 8.515625 -50.042969 8.265625 -50.761719 L 24.636719 -1.398438 L 18.714844 0.566406 L 24.210938 -2.390625 C 23.695312 -3.351562 22.957031 -4.101562 22 -4.636719 C 21.246094 -5.058594 20.449219 -5.289062 19.613281 -5.328125 C 18.679688 -5.371094 17.78125 -5.179688 16.910156 -4.746094 C 15.679688 -4.136719 14.773438 -3.1875 14.1875 -1.902344 L 31.539062 -41.183594 L 37.246094 -38.660156 L 36.953125 -32.429688 Z M 27.417969 -32.875 "/></g></g></g><g fill="#231f20" fill-opacity="1"><g transform="translate(257.150246, 178.208055)"><g><path d="M 30.417969 -6.929688 L 29.230469 8.5 L 0.203125 6.273438 C -1.503906 6.140625 -2.949219 5.511719 -4.128906 4.386719 C -4.945312 3.605469 -5.527344 2.675781 -5.875 1.59375 C -6.144531 0.746094 -6.246094 -0.128906 -6.179688 -1.035156 L -2.46875 -49.371094 C -2.398438 -50.277344 -2.167969 -51.128906 -1.769531 -51.921875 C -1.261719 -52.9375 -0.542969 -53.769531 0.382812 -54.414062 C 1.722656 -55.347656 3.246094 -55.75 4.953125 -55.617188 L 33.980469 -53.390625 L 32.339844 -31.988281 L 12.085938 -33.542969 L 12.5625 -39.761719 L 18.785156 -39.285156 L 17.925781 -28.097656 L 11.707031 -28.574219 L 12.183594 -34.792969 L 31.59375 -33.304688 C 33.300781 -33.175781 34.742188 -32.546875 35.921875 -31.417969 C 36.742188 -30.636719 37.324219 -29.707031 37.667969 -28.628906 C 37.941406 -27.78125 38.042969 -26.902344 37.972656 -26 L 37.371094 -18.148438 C 37.300781 -17.242188 37.066406 -16.394531 36.667969 -15.597656 C 36.164062 -14.582031 35.445312 -13.753906 34.515625 -13.105469 C 33.179688 -12.171875 31.65625 -11.769531 29.949219 -11.902344 L 10.539062 -13.390625 L 11.019531 -19.609375 L 17.238281 -19.132812 L 16.382812 -8.007812 L 10.164062 -8.484375 L 10.640625 -14.703125 L 30.894531 -13.152344 Z M 17.976562 -7.886719 L 24.195312 -7.40625 L 23.71875 -1.1875 L 3.464844 -2.742188 L 5.273438 -26.308594 L 30.90625 -24.34375 C 30.460938 -24.375 30.011719 -24.347656 29.550781 -24.261719 C 28.769531 -24.109375 28.042969 -23.804688 27.378906 -23.339844 C 26.570312 -22.773438 25.945312 -22.054688 25.507812 -21.175781 C 25.175781 -20.511719 24.984375 -19.824219 24.929688 -19.101562 L 25.53125 -26.953125 C 25.476562 -26.234375 25.5625 -25.523438 25.789062 -24.816406 C 26.085938 -23.882812 26.59375 -23.074219 27.304688 -22.394531 C 27.894531 -21.832031 28.5625 -21.417969 29.3125 -21.152344 C 29.753906 -20.992188 30.195312 -20.898438 30.636719 -20.863281 L 5.007812 -22.832031 L 6.820312 -46.460938 L 27.074219 -44.90625 L 26.59375 -38.6875 L 20.375 -39.164062 L 21.0625 -48.125 L 27.28125 -47.648438 L 26.804688 -41.429688 L 3.996094 -43.179688 C 4.4375 -43.144531 4.890625 -43.171875 5.351562 -43.257812 C 6.132812 -43.410156 6.855469 -43.71875 7.523438 -44.183594 C 8.332031 -44.746094 8.953125 -45.464844 9.394531 -46.34375 C 9.722656 -47.007812 9.917969 -47.699219 9.972656 -48.417969 L 6.261719 -0.078125 C 6.320312 -0.796875 6.234375 -1.511719 6.007812 -2.214844 C 5.707031 -3.152344 5.199219 -3.957031 4.488281 -4.636719 C 3.902344 -5.199219 3.234375 -5.613281 2.480469 -5.882812 C 2.039062 -6.039062 1.597656 -6.132812 1.15625 -6.167969 L 23.964844 -4.417969 L 23.488281 1.800781 L 17.269531 1.324219 Z M 17.976562 -7.886719 "/></g></g></g><g fill="#ffffff" fill-opacity="1"><g transform="translate(86.591867, 180.497895)"><g><path d="M 37.421875 -52.375 C 37.867188 -52.40625 38.101562 -52.238281 38.125 -51.875 L 41.5625 -3.515625 C 41.59375 -3.140625 41.382812 -2.9375 40.9375 -2.90625 L 32.78125 -2.328125 C 32.738281 -2.328125 32.640625 -2.34375 32.484375 -2.375 C 32.335938 -2.40625 32.242188 -2.441406 32.203125 -2.484375 L 7.125 -33.453125 L 8.609375 -12.546875 L -0.84375 -11.875 L -3.484375 -48.921875 C -3.503906 -49.285156 -3.304688 -49.484375 -2.890625 -49.515625 L 5.328125 -50.09375 C 5.410156 -50.101562 5.507812 -50.101562 5.625 -50.09375 C 5.75 -50.082031 5.835938 -50.035156 5.890625 -49.953125 L 31.03125 -18.984375 L 28.734375 -51.21875 C 28.710938 -51.582031 28.953125 -51.78125 29.453125 -51.8125 Z M 37.421875 -52.375 "/></g></g></g><g fill="#ffffff" fill-opacity="1"><g transform="translate(129.19538, 177.47317)"><g><path d="M 38.890625 -2.078125 C 38.984375 -1.910156 38.96875 -1.738281 38.84375 -1.5625 C 38.726562 -1.394531 38.566406 -1.304688 38.359375 -1.296875 L 29.8125 -1.015625 C 29.519531 -1.003906 29.328125 -1.125 29.234375 -1.375 L 18.5 -28.671875 L 9.78125 -0.703125 C 9.75 -0.453125 9.546875 -0.320312 9.171875 -0.3125 L 0.6875 -0.015625 C 0.394531 -0.015625 0.191406 -0.09375 0.078125 -0.25 C -0.0234375 -0.414062 -0.0390625 -0.582031 0.03125 -0.75 L 17.15625 -49.84375 C 17.226562 -50.082031 17.429688 -50.207031 17.765625 -50.21875 C 18.097656 -50.226562 18.3125 -50.117188 18.40625 -49.890625 Z M 38.890625 -2.078125 "/></g></g></g><g fill="#ffffff" fill-opacity="1"><g transform="translate(169.134695, 176.176263)"><g><path d="M 10.15625 -31.65625 L 19.578125 -31.671875 L 19.65625 -0.609375 C 19.65625 -0.234375 19.40625 -0.046875 18.90625 -0.046875 L 10.90625 -0.03125 C 10.457031 -0.03125 10.234375 -0.21875 10.234375 -0.59375 Z M 0.59375 -41.109375 C 0.132812 -41.109375 -0.09375 -41.289062 -0.09375 -41.65625 L -0.125 -49.046875 C -0.125 -49.410156 0.101562 -49.59375 0.5625 -49.59375 L 29.015625 -49.65625 C 29.472656 -49.664062 29.703125 -49.488281 29.703125 -49.125 L 29.734375 -41.734375 C 29.734375 -41.367188 29.503906 -41.179688 29.046875 -41.171875 Z M 0.59375 -41.109375 "/></g></g></g><g fill="#ffffff" fill-opacity="1"><g transform="translate(199.736139, 176.148692)"><g><path d="M 20.390625 -8.078125 C 20.835938 -8.066406 21.0625 -7.875 21.0625 -7.5 L 20.90625 -0.125 C 20.894531 0.25 20.664062 0.429688 20.21875 0.421875 L 0.6875 0.015625 C 0.226562 0.00390625 0.00390625 -0.1875 0.015625 -0.5625 L 0.171875 -7.9375 C 0.171875 -8.3125 0.398438 -8.492188 0.859375 -8.484375 L 5.9375 -8.375 L 6.3125 -25.921875 L 6.625 -40.96875 L 6.796875 -49.453125 L 16.28125 -49.265625 L 16.109375 -40.78125 L 15.796875 -25.734375 L 15.421875 -8.1875 Z M 20.390625 -8.078125 "/></g></g></g><g fill="#ffffff" fill-opacity="1"><g transform="translate(220.898799, 176.481675)"><g><path d="M 27.71875 -39.109375 L 37.265625 -38.65625 L 19.90625 0.609375 C 19.8125 0.816406 19.617188 0.910156 19.328125 0.890625 C 19.035156 0.878906 18.832031 0.769531 18.71875 0.5625 L 2.34375 -48.8125 C 2.269531 -49.019531 2.285156 -49.191406 2.390625 -49.328125 C 2.503906 -49.460938 2.6875 -49.523438 2.9375 -49.515625 L 11.34375 -49.125 C 11.71875 -49.101562 11.921875 -48.972656 11.953125 -48.734375 L 20.359375 -21.265625 Z M 27.71875 -39.109375 "/></g></g></g><g fill="#ffffff" fill-opacity="1"><g transform="translate(257.150246, 178.208055)"><g><path d="M 24.203125 -7.40625 L 23.5 1.796875 L 0.6875 0.046875 C 0.226562 0.015625 0.015625 -0.1875 0.046875 -0.5625 L 3.75 -48.90625 C 3.78125 -49.269531 4.023438 -49.4375 4.484375 -49.40625 L 27.296875 -47.65625 L 26.609375 -38.6875 L 12.5625 -39.765625 L 11.703125 -28.578125 L 31.125 -27.078125 C 31.570312 -27.046875 31.78125 -26.847656 31.75 -26.484375 L 31.15625 -18.625 C 31.125 -18.25 30.882812 -18.078125 30.4375 -18.109375 L 11.015625 -19.609375 L 10.15625 -8.484375 Z M 24.203125 -7.40625 "/></g></g></g><g fill="#231f20" fill-opacity="1"><g transform="translate(112.139947, 226.406347)"><g><path d="M 49.617188 1.195312 L 37.605469 1.511719 L 29.195312 -19 L 31.5 -19.945312 L 33.855469 -19.121094 L 26.53125 1.800781 L 12.953125 2.15625 L -4.492188 -31.796875 L 13.671875 -32.269531 L 22.207031 -12.226562 L 19.914062 -11.25 L 17.589844 -12.164062 L 25.621094 -32.582031 L 36.714844 -32.875 L 45.800781 -12.902344 L 43.53125 -11.871094 L 41.1875 -12.726562 L 48.660156 -33.1875 L 66.828125 -33.664062 L 51.183594 1.152344 Z M 49.484375 -3.789062 L 49.550781 -1.296875 L 47.277344 -2.320312 L 60.652344 -32.089844 L 62.925781 -31.066406 L 62.992188 -28.574219 L 50.484375 -28.246094 L 50.421875 -30.738281 L 52.761719 -29.882812 L 43.78125 -5.292969 L 32.855469 -29.304688 L 35.128906 -30.339844 L 35.191406 -27.84375 L 27.402344 -27.640625 L 27.335938 -30.132812 L 29.65625 -29.222656 L 20.003906 -4.667969 L 9.75 -28.757812 L 12.042969 -29.734375 L 12.109375 -27.242188 L -0.398438 -26.914062 L -0.460938 -29.40625 L 1.753906 -30.546875 L 16.671875 -1.519531 L 14.453125 -0.378906 L 14.386719 -2.871094 L 24.679688 -3.140625 L 24.746094 -0.648438 L 22.390625 -1.472656 L 31.316406 -26.964844 L 41.566406 -1.972656 L 39.257812 -1.027344 L 39.195312 -3.519531 Z M 49.484375 -3.789062 "/></g></g></g><g fill="#231f20" fill-opacity="1"><g transform="translate(175.765148, 224.919054)"><g><path d="M 38.707031 2.691406 L 0.773438 2.496094 L 0.949219 -31.917969 L 39.753906 -31.722656 L 39.691406 -19.453125 L 15.726562 -19.574219 L 15.738281 -22.070312 L 18.234375 -22.054688 L 18.210938 -17.441406 L 15.714844 -17.453125 L 15.726562 -19.949219 L 36.371094 -19.84375 L 36.316406 -9.195312 L 15.675781 -9.300781 L 15.6875 -11.792969 L 18.179688 -11.78125 L 18.15625 -7.1875 L 15.664062 -7.199219 L 15.675781 -9.695312 L 41.261719 -9.566406 L 41.199219 2.703125 Z M 38.730469 -2.296875 L 38.71875 0.195312 L 36.222656 0.183594 L 36.261719 -7.097656 L 38.753906 -7.085938 L 38.742188 -4.589844 L 13.15625 -4.71875 L 13.207031 -14.300781 L 33.847656 -14.195312 L 33.835938 -11.703125 L 31.34375 -11.714844 L 31.371094 -17.375 L 33.863281 -17.363281 L 33.851562 -14.871094 L 13.210938 -14.972656 L 13.257812 -24.574219 L 37.222656 -24.453125 L 37.210938 -21.960938 L 34.714844 -21.972656 L 34.753906 -29.253906 L 37.246094 -29.242188 L 37.234375 -26.746094 L 3.417969 -26.917969 L 3.429688 -29.410156 L 5.925781 -29.398438 L 5.773438 0.0273438 L 3.28125 0.015625 L 3.292969 -2.476562 Z M 38.730469 -2.296875 "/></g></g></g><g fill="#231f20" fill-opacity="1"><g transform="translate(215.805222, 225.073437)"><g><path d="M 24.292969 3.253906 L 0.710938 2.515625 L 1.785156 -31.863281 L 25.820312 -31.109375 C 29.761719 -30.988281 33.023438 -30.703125 35.597656 -30.257812 C 38.367188 -29.777344 40.539062 -29.066406 42.121094 -28.121094 C 43.933594 -27.039062 45.164062 -25.644531 45.8125 -23.945312 C 46.371094 -22.46875 46.621094 -20.769531 46.5625 -18.835938 L 46.558594 -18.796875 L 46.558594 -18.753906 C 46.441406 -16.957031 45.871094 -15.445312 44.847656 -14.21875 C 43.917969 -13.109375 42.828125 -12.285156 41.582031 -11.753906 C 40.363281 -11.234375 39.242188 -10.988281 38.21875 -11.023438 L 38.375 -16.007812 C 39.257812 -15.980469 40.238281 -15.789062 41.316406 -15.433594 C 42.367188 -15.089844 43.375 -14.613281 44.347656 -14 C 45.410156 -13.328125 46.292969 -12.519531 46.996094 -11.566406 C 47.859375 -10.402344 48.265625 -9.09375 48.222656 -7.644531 C 48.179688 -6.269531 47.976562 -5 47.609375 -3.832031 C 47.175781 -2.433594 46.367188 -1.222656 45.1875 -0.203125 C 44.089844 0.746094 42.582031 1.503906 40.664062 2.070312 C 38.917969 2.585938 36.695312 2.941406 33.988281 3.144531 C 31.371094 3.335938 28.140625 3.375 24.292969 3.253906 Z M 24.449219 -1.730469 C 28.121094 -1.617188 31.175781 -1.648438 33.617188 -1.832031 C 35.972656 -2.003906 37.847656 -2.300781 39.253906 -2.710938 C 40.480469 -3.074219 41.371094 -3.492188 41.917969 -3.96875 C 42.386719 -4.375 42.695312 -4.824219 42.851562 -5.320312 C 43.078125 -6.054688 43.207031 -6.878906 43.238281 -7.800781 C 43.246094 -8.097656 43.164062 -8.363281 42.988281 -8.601562 C 42.65625 -9.050781 42.222656 -9.441406 41.6875 -9.78125 C 41.0625 -10.175781 40.421875 -10.480469 39.765625 -10.695312 C 39.136719 -10.898438 38.625 -11.007812 38.21875 -11.023438 L 38.375 -16.007812 C 38.664062 -15.996094 39.082031 -16.109375 39.625 -16.339844 C 40.136719 -16.558594 40.605469 -16.921875 41.023438 -17.421875 C 41.347656 -17.8125 41.535156 -18.359375 41.578125 -19.074219 L 44.070312 -18.914062 L 41.574219 -18.992188 C 41.617188 -20.257812 41.472656 -21.320312 41.148438 -22.171875 C 40.910156 -22.792969 40.382812 -23.351562 39.5625 -23.839844 C 38.511719 -24.46875 36.90625 -24.96875 34.75 -25.34375 C 32.402344 -25.75 29.375 -26.007812 25.664062 -26.125 L 4.121094 -26.796875 L 4.199219 -29.292969 L 6.691406 -29.214844 L 5.773438 0.179688 L 3.28125 0.101562 L 3.359375 -2.390625 Z M 24.292969 -18.96875 C 25.945312 -18.917969 27.199219 -18.957031 28.050781 -19.082031 C 28.386719 -19.128906 28.648438 -19.1875 28.84375 -19.257812 C 28.890625 -19.277344 28.925781 -19.289062 28.945312 -19.300781 C 28.917969 -19.285156 28.882812 -19.257812 28.84375 -19.222656 C 28.773438 -19.164062 28.71875 -19.085938 28.675781 -18.988281 C 28.640625 -18.914062 28.625 -18.851562 28.625 -18.800781 C 28.621094 -18.761719 28.632812 -18.707031 28.660156 -18.640625 C 28.695312 -18.539062 28.75 -18.457031 28.816406 -18.390625 C 28.855469 -18.347656 28.890625 -18.320312 28.917969 -18.300781 C 28.902344 -18.3125 28.871094 -18.328125 28.824219 -18.347656 C 28.636719 -18.425781 28.378906 -18.5 28.050781 -18.566406 C 27.203125 -18.742188 25.949219 -18.851562 24.289062 -18.90625 L 16.234375 -19.15625 L 16.3125 -21.648438 L 18.804688 -21.570312 L 18.648438 -16.652344 L 16.15625 -16.730469 L 16.234375 -19.222656 Z M 24.136719 -13.984375 L 13.585938 -14.316406 L 13.898438 -24.21875 L 24.445312 -23.890625 C 26.390625 -23.828125 27.925781 -23.683594 29.050781 -23.453125 C 30.527344 -23.152344 31.628906 -22.632812 32.355469 -21.902344 C 32.792969 -21.460938 33.121094 -20.953125 33.332031 -20.382812 C 33.535156 -19.839844 33.628906 -19.261719 33.609375 -18.648438 C 33.589844 -18.035156 33.460938 -17.464844 33.222656 -16.9375 C 32.972656 -16.386719 32.617188 -15.90625 32.15625 -15.496094 C 31.390625 -14.816406 30.265625 -14.367188 28.777344 -14.144531 C 27.632812 -13.976562 26.085938 -13.925781 24.136719 -13.984375 Z M 23.980469 -9.007812 C 25.753906 -8.953125 27.183594 -8.953125 28.265625 -9.011719 C 28.699219 -9.03125 29.058594 -9.074219 29.339844 -9.140625 C 29.507812 -9.179688 29.613281 -9.210938 29.65625 -9.238281 C 29.523438 -9.15625 29.421875 -9.046875 29.34375 -8.902344 C 29.320312 -8.851562 29.304688 -8.808594 29.292969 -8.769531 L 29.292969 -8.765625 C 29.292969 -8.777344 29.296875 -8.792969 29.296875 -8.808594 C 29.296875 -8.828125 29.296875 -8.84375 29.296875 -8.855469 L 29.296875 -8.851562 C 29.300781 -8.816406 29.316406 -8.773438 29.335938 -8.722656 C 29.402344 -8.582031 29.492188 -8.46875 29.613281 -8.382812 C 29.601562 -8.386719 29.585938 -8.394531 29.566406 -8.40625 C 29.503906 -8.433594 29.421875 -8.464844 29.320312 -8.492188 C 29.046875 -8.574219 28.695312 -8.636719 28.269531 -8.683594 C 27.1875 -8.800781 25.757812 -8.886719 23.976562 -8.941406 L 15.921875 -9.195312 L 16 -11.6875 L 18.492188 -11.609375 L 18.339844 -6.691406 L 15.847656 -6.769531 L 15.925781 -9.261719 Z M 23.824219 -4.023438 L 13.277344 -4.351562 L 13.585938 -14.257812 L 24.132812 -13.929688 C 26.042969 -13.867188 27.601562 -13.773438 28.808594 -13.640625 C 30.378906 -13.46875 31.597656 -13.082031 32.46875 -12.472656 C 33.113281 -12.023438 33.589844 -11.445312 33.902344 -10.734375 C 34.179688 -10.109375 34.304688 -9.414062 34.28125 -8.652344 C 34.257812 -7.890625 34.085938 -7.207031 33.769531 -6.597656 C 33.410156 -5.90625 32.890625 -5.359375 32.214844 -4.957031 C 31.320312 -4.417969 30.085938 -4.109375 28.523438 -4.027344 C 27.304688 -3.964844 25.738281 -3.964844 23.824219 -4.023438 Z M 23.824219 -4.023438 "/></g></g></g><g fill="#ffffff" fill-opacity="1"><g transform="translate(112.139947, 226.406347)"><g><path d="M 49.546875 -1.296875 L 39.25 -1.03125 L 31.5 -19.953125 L 24.734375 -0.640625 L 14.453125 -0.375 L -0.453125 -29.40625 L 12.046875 -29.71875 L 19.921875 -11.25 L 27.328125 -30.125 L 35.125 -30.328125 L 43.53125 -11.859375 L 50.421875 -30.734375 L 62.9375 -31.0625 Z M 49.546875 -1.296875 "/></g></g></g><g fill="#ffffff" fill-opacity="1"><g transform="translate(175.765148, 224.919054)"><g><path d="M 38.71875 0.203125 L 3.28125 0.015625 L 3.4375 -29.40625 L 37.25 -29.234375 L 37.203125 -21.96875 L 15.734375 -22.078125 L 15.71875 -17.453125 L 33.875 -17.359375 L 33.84375 -11.703125 L 15.6875 -11.796875 L 15.65625 -7.203125 L 38.75 -7.078125 Z M 38.71875 0.203125 "/></g></g></g><g fill="#ffffff" fill-opacity="1"><g transform="translate(215.805222, 225.073437)"><g><path d="M 24.375 0.765625 L 3.28125 0.109375 L 4.203125 -29.28125 L 25.734375 -28.609375 C 29.566406 -28.492188 32.710938 -28.222656 35.171875 -27.796875 C 37.640625 -27.367188 39.53125 -26.757812 40.84375 -25.96875 C 42.15625 -25.1875 43.03125 -24.210938 43.46875 -23.046875 C 43.914062 -21.890625 44.117188 -20.507812 44.078125 -18.90625 C 43.992188 -17.644531 43.613281 -16.613281 42.9375 -15.8125 C 42.269531 -15.019531 41.492188 -14.429688 40.609375 -14.046875 C 39.722656 -13.671875 38.953125 -13.492188 38.296875 -13.515625 C 38.941406 -13.492188 39.691406 -13.34375 40.546875 -13.0625 C 41.398438 -12.789062 42.222656 -12.398438 43.015625 -11.890625 C 43.816406 -11.390625 44.476562 -10.785156 45 -10.078125 C 45.519531 -9.378906 45.765625 -8.59375 45.734375 -7.71875 C 45.703125 -6.570312 45.535156 -5.523438 45.234375 -4.578125 C 44.941406 -3.628906 44.382812 -2.800781 43.5625 -2.09375 C 42.738281 -1.382812 41.539062 -0.796875 39.96875 -0.328125 C 38.394531 0.140625 36.34375 0.46875 33.8125 0.65625 C 31.28125 0.84375 28.132812 0.878906 24.375 0.765625 Z M 24.203125 -16.484375 C 26.003906 -16.421875 27.40625 -16.460938 28.40625 -16.609375 C 29.414062 -16.753906 30.113281 -17 30.5 -17.34375 C 30.894531 -17.695312 31.097656 -18.15625 31.109375 -18.71875 C 31.128906 -19.289062 30.953125 -19.765625 30.578125 -20.140625 C 30.210938 -20.515625 29.535156 -20.800781 28.546875 -21 C 27.554688 -21.207031 26.160156 -21.34375 24.359375 -21.40625 L 16.3125 -21.65625 L 16.15625 -16.734375 Z M 23.90625 -6.53125 C 25.75 -6.46875 27.242188 -6.460938 28.390625 -6.515625 C 29.546875 -6.578125 30.394531 -6.769531 30.9375 -7.09375 C 31.476562 -7.425781 31.757812 -7.972656 31.78125 -8.734375 C 31.8125 -9.503906 31.566406 -10.070312 31.046875 -10.4375 C 30.523438 -10.800781 29.6875 -11.046875 28.53125 -11.171875 C 27.382812 -11.296875 25.890625 -11.390625 24.046875 -11.453125 L 16 -11.703125 L 15.859375 -6.78125 Z M 23.90625 -6.53125 "/></g></g></g></svg>