<svg xmlns="http://www.w3.org/2000/svg" xmlns:xlink="http://www.w3.org/1999/xlink" width="500" zoomAndPan="magnify" viewBox="0 0 375 374.999991" height="500" preserveAspectRatio="xMidYMid meet" version="1.0"><defs><g/><clipPath id="fb3e8401ec"><path d="M 43.5 140 L 331.5 140 L 331.5 214 L 43.5 214 Z M 43.5 140 " clip-rule="nonzero"/></clipPath><clipPath id="182c966dd0"><path d="M 267 82.25 L 317 82.25 L 317 132 L 267 132 Z M 267 82.25 " clip-rule="nonzero"/></clipPath></defs><path fill="#800200" d="M 84.726562 168.84375 C 84.636719 170.851562 84.582031 172.875 84.609375 174.894531 C 84.175781 175.71875 83.773438 176.558594 83.410156 177.394531 C 83.726562 174.507812 84.175781 171.648438 84.726562 168.84375 Z M 125.984375 105.535156 C 124.148438 107.582031 122.488281 109.867188 120.972656 112.351562 C 117.523438 114.082031 114.34375 115.960938 111.457031 117.980469 C 115.890625 113.402344 120.757812 109.214844 125.984375 105.535156 Z M 258.023438 117.96875 C 255.136719 115.945312 251.945312 114.054688 248.492188 112.335938 C 246.976562 109.824219 245.285156 107.527344 243.4375 105.460938 C 248.175781 108.796875 252.667969 112.550781 256.839844 116.726562 C 257.242188 117.117188 257.632812 117.546875 258.023438 117.96875 Z M 284.871094 174.882812 C 284.914062 172.832031 284.855469 170.808594 284.753906 168.789062 C 285.304688 171.589844 285.722656 174.40625 286.039062 177.265625 C 285.695312 176.46875 285.304688 175.660156 284.871094 174.882812 Z M 284.464844 210.148438 C 284.25 206.292969 283.167969 202.539062 281.261719 198.882812 C 283.167969 192.167969 284.335938 185.335938 284.726562 178.507812 C 285.75 180.960938 286.371094 183.460938 286.648438 185.988281 C 286.660156 186.925781 286.703125 187.878906 286.703125 188.832031 C 286.703125 196.082031 285.9375 203.214844 284.464844 210.148438 Z M 254.542969 263.121094 C 254.789062 262.757812 255.003906 262.382812 255.222656 262.007812 C 256.03125 261.402344 256.8125 260.765625 257.605469 260.128906 C 257.34375 260.390625 257.097656 260.679688 256.839844 260.9375 C 256.089844 261.691406 255.308594 262.398438 254.542969 263.121094 Z M 111.816406 260.074219 C 112.613281 260.722656 113.40625 261.371094 114.214844 261.980469 C 114.429688 262.355469 114.664062 262.730469 114.90625 263.105469 C 114.140625 262.382812 113.375 261.675781 112.625 260.9375 C 112.351562 260.648438 112.089844 260.363281 111.816406 260.074219 Z M 94.847656 164.800781 C 94.933594 171.445312 95.773438 178.261719 97.417969 185.222656 C 97.550781 185.742188 97.679688 186.261719 97.808594 186.78125 C 96.882812 187.589844 96.003906 188.414062 95.167969 189.25 C 92.625 191.792969 90.53125 194.421875 88.914062 197.09375 C 87.078125 190.234375 86.039062 183.273438 85.808594 176.296875 C 87.871094 172.253906 90.921875 168.398438 94.847656 164.800781 Z M 89.214844 153.132812 C 91.195312 149.320312 94.070312 145.710938 97.722656 142.359375 C 95.886719 148.828125 94.921875 155.601562 94.832031 162.578125 C 93.835938 163.445312 92.882812 164.324219 91.988281 165.207031 C 89.476562 167.734375 87.410156 170.304688 85.75 172.945312 C 85.765625 168.960938 86.054688 164.988281 86.601562 161.046875 C 87.367188 158.359375 88.25 155.71875 89.214844 153.132812 Z M 104.769531 125.636719 C 104.078125 126.835938 103.414062 128.0625 102.792969 129.304688 C 102.011719 129.984375 101.261719 130.648438 100.554688 131.355469 C 101.894531 129.390625 103.296875 127.46875 104.769531 125.636719 Z M 117.160156 119.902344 C 112.582031 122.226562 108.511719 124.769531 105 127.5 C 106.113281 125.460938 107.339844 123.46875 108.65625 121.519531 C 111.917969 118.847656 115.703125 116.378906 119.90625 114.167969 C 118.90625 115.988281 117.984375 117.894531 117.160156 119.902344 Z M 139.011719 106.542969 C 138.144531 108.347656 137.363281 110.285156 136.671875 112.320312 C 133.753906 113.171875 130.921875 114.113281 128.179688 115.121094 C 124.828125 116.378906 121.695312 117.707031 118.75 119.136719 C 119.660156 117.042969 120.667969 115.066406 121.78125 113.203125 C 126.964844 110.632812 132.757812 108.394531 139.011719 106.542969 Z M 131.082031 102.140625 C 132.570312 101.214844 134.070312 100.335938 135.601562 99.496094 C 139.023438 97.921875 142.738281 96.523438 146.664062 95.324219 C 143.949219 98.097656 141.625 101.375 139.675781 105.171875 C 133.636719 106.917969 127.992188 109.011719 122.894531 111.410156 C 125.246094 107.828125 127.992188 104.722656 131.082031 102.140625 Z M 148.441406 93.617188 C 148.179688 93.675781 147.921875 93.75 147.660156 93.835938 C 147.980469 93.707031 148.296875 93.589844 148.613281 93.472656 C 148.554688 93.519531 148.5 93.5625 148.441406 93.617188 Z M 165.902344 90.039062 C 160.671875 90.714844 155.632812 91.699219 150.851562 92.953125 C 150.882812 92.851562 150.894531 92.738281 150.882812 92.636719 C 156.167969 90.773438 161.640625 89.328125 167.289062 88.363281 C 166.796875 88.867188 166.335938 89.429688 165.902344 90.039062 Z M 218.628906 92.925781 C 213.847656 91.667969 208.808594 90.6875 203.566406 90.007812 C 203.144531 89.417969 202.699219 88.867188 202.222656 88.363281 C 207.808594 89.328125 213.296875 90.730469 218.613281 92.59375 C 218.582031 92.710938 218.582031 92.808594 218.628906 92.925781 Z M 220.980469 93.5625 C 220.9375 93.519531 220.878906 93.472656 220.824219 93.417969 C 221.140625 93.546875 221.472656 93.664062 221.789062 93.792969 C 221.53125 93.71875 221.253906 93.632812 220.980469 93.5625 Z M 250.730469 119.109375 C 247.785156 117.691406 244.652344 116.351562 241.316406 115.109375 C 238.554688 114.097656 235.726562 113.160156 232.824219 112.304688 C 232.128906 110.269531 231.335938 108.347656 230.46875 106.515625 C 236.722656 108.378906 242.511719 110.601562 247.683594 113.1875 C 248.808594 115.050781 249.820312 117.027344 250.730469 119.109375 Z M 260.796875 121.476562 C 262.125 123.425781 263.351562 125.417969 264.464844 127.457031 C 260.957031 124.742188 256.898438 122.199219 252.320312 119.886719 C 251.496094 117.878906 250.570312 115.960938 249.5625 114.140625 C 253.761719 116.363281 257.53125 118.804688 260.796875 121.476562 Z M 266.660156 129.261719 C 266.039062 127.988281 265.359375 126.746094 264.652344 125.507812 C 266.167969 127.425781 267.628906 129.375 269 131.371094 C 268.25 130.660156 267.46875 129.941406 266.660156 129.261719 Z M 277.519531 165.207031 C 276.609375 164.308594 275.65625 163.445312 274.660156 162.5625 C 274.558594 155.515625 273.578125 148.683594 271.714844 142.15625 C 275.367188 145.535156 278.242188 149.175781 280.25 153.03125 C 281.246094 155.6875 282.125 158.390625 282.890625 161.132812 C 283.441406 165.046875 283.714844 168.976562 283.730469 172.933594 C 282.082031 170.289062 280.019531 167.71875 277.519531 165.207031 Z M 273.996094 189.25 C 273.246094 188.484375 272.4375 187.75 271.613281 187.027344 C 271.773438 186.421875 271.929688 185.8125 272.0625 185.222656 C 273.722656 178.261719 274.558594 171.445312 274.632812 164.816406 C 275.210938 165.335938 275.773438 165.871094 276.308594 166.417969 C 279.5 169.597656 281.953125 172.902344 283.6875 176.28125 C 283.457031 183.375 282.371094 190.480469 280.464844 197.46875 C 278.820312 194.652344 276.652344 191.910156 273.996094 189.25 Z M 276.261719 209.6875 C 274.703125 207.058594 272.667969 204.515625 270.199219 202.03125 C 269.359375 201.207031 268.492188 200.414062 267.585938 199.605469 C 269.027344 195.835938 270.285156 192.054688 271.308594 188.253906 C 271.945312 188.847656 272.582031 189.4375 273.203125 190.046875 C 276.105469 192.949219 278.386719 195.953125 280.046875 199.011719 C 279.007812 202.609375 277.738281 206.175781 276.261719 209.6875 Z M 283.296875 213.644531 C 282.328125 216.242188 281.273438 218.726562 280.132812 221.125 C 279.800781 217.644531 278.746094 214.234375 276.957031 210.914062 C 278.445312 207.476562 279.730469 204.011719 280.796875 200.488281 C 282.515625 204.113281 283.382812 207.835938 283.382812 211.636719 C 283.382812 212.300781 283.355469 212.980469 283.296875 213.644531 Z M 280.234375 223.476562 C 280.753906 222.464844 281.246094 221.425781 281.738281 220.371094 C 281.246094 221.859375 280.742188 223.320312 280.191406 224.792969 C 280.21875 224.34375 280.234375 223.925781 280.234375 223.476562 Z M 235.8125 271.367188 C 236.507812 269.71875 236.867188 268.042969 236.925781 266.3125 C 243.554688 262.859375 250.441406 258.425781 256.984375 252.835938 C 256.796875 255.683594 255.902344 258.5 254.371094 261.226562 C 248.621094 265.460938 242.269531 268.808594 235.8125 271.367188 Z M 225.921875 282.140625 C 225.832031 282.167969 225.746094 282.210938 225.660156 282.226562 C 227.148438 281.273438 228.519531 280.289062 229.746094 279.238281 C 231.839844 278.617188 233.921875 277.863281 235.941406 277.042969 C 232.691406 278.917969 229.355469 280.625 225.921875 282.140625 Z M 139.617188 279.191406 C 140.800781 280.234375 142.128906 281.214844 143.574219 282.140625 C 143.546875 282.140625 143.515625 282.125 143.488281 282.109375 C 140.078125 280.609375 136.730469 278.90625 133.492188 277.011719 C 135.488281 277.835938 137.539062 278.574219 139.617188 279.191406 Z M 112.496094 252.835938 C 119.039062 258.410156 125.925781 262.84375 132.554688 266.296875 C 132.597656 268.015625 132.960938 269.707031 133.636719 271.351562 C 127.199219 268.78125 120.84375 265.445312 115.09375 261.214844 C 113.566406 258.484375 112.667969 255.667969 112.496094 252.835938 Z M 89.230469 223.433594 C 89.230469 223.882812 89.257812 224.316406 89.273438 224.777344 C 88.710938 223.277344 88.191406 221.773438 87.699219 220.257812 C 88.191406 221.339844 88.695312 222.410156 89.230469 223.433594 Z M 101.894531 199.589844 C 100.984375 200.398438 100.105469 201.195312 99.28125 202.03125 C 96.796875 204.5 94.789062 207.058594 93.230469 209.65625 C 91.699219 206.03125 90.398438 202.351562 89.332031 198.625 C 91.425781 194.882812 94.402344 191.332031 98.125 188.007812 C 99.152344 191.878906 100.421875 195.75 101.894531 199.589844 Z M 114.199219 177.378906 C 115.007812 181.4375 115.992188 185.523438 117.144531 189.597656 C 111.703125 192.328125 106.878906 195.417969 102.820312 198.8125 C 101.347656 194.941406 100.089844 191.054688 99.078125 187.1875 C 103.28125 183.589844 108.367188 180.3125 114.199219 177.378906 Z M 113.59375 131.585938 C 112.410156 137.042969 111.703125 142.9375 111.570312 149.246094 C 111.542969 150.042969 111.558594 150.835938 111.558594 151.628906 C 105.652344 154.578125 100.410156 157.914062 96.003906 161.582031 C 96.191406 154.417969 97.304688 147.5 99.355469 140.902344 C 103.355469 137.507812 108.148438 134.386719 113.59375 131.585938 Z M 113.925781 130.054688 C 108.625 132.742188 103.945312 135.703125 99.988281 138.878906 C 101.042969 135.832031 102.285156 132.855469 103.730469 129.953125 C 107.371094 126.835938 111.703125 123.976562 116.597656 121.40625 C 115.558594 124.132812 114.648438 127.023438 113.925781 130.054688 Z M 134.085938 122.226562 C 129.941406 123.441406 125.957031 124.8125 122.199219 126.316406 C 119.789062 127.296875 117.476562 128.320312 115.269531 129.390625 C 116.046875 126.316406 116.988281 123.367188 118.097656 120.625 C 123.53125 117.894531 129.636719 115.527344 136.238281 113.5625 C 135.386719 116.261719 134.648438 119.152344 134.085938 122.226562 Z M 159.429688 108.609375 C 158.984375 111.324219 158.609375 114.167969 158.332031 117.101562 C 150.289062 118.214844 142.550781 119.800781 135.300781 121.867188 C 135.90625 118.761719 136.65625 115.875 137.566406 113.171875 C 144.382812 111.207031 151.71875 109.679688 159.429688 108.609375 Z M 160.816406 101.910156 C 160.371094 103.671875 159.980469 105.519531 159.617188 107.46875 C 152.09375 108.492188 144.832031 109.980469 138 111.917969 C 138.734375 109.867188 139.546875 107.929688 140.453125 106.109375 C 146.824219 104.304688 153.667969 102.890625 160.816406 101.910156 Z M 184.167969 99.179688 C 176.675781 99.191406 169.324219 99.667969 162.289062 100.566406 C 163.402344 96.738281 164.804688 93.519531 166.480469 91.105469 C 172.210938 90.355469 178.132812 89.964844 184.167969 89.9375 Z M 207.203125 100.566406 C 200.15625 99.667969 192.804688 99.191406 185.296875 99.179688 L 185.296875 89.9375 C 191.363281 89.949219 197.28125 90.339844 202.972656 91.0625 C 204.675781 93.488281 206.0625 96.710938 207.203125 100.566406 Z M 209.859375 107.453125 C 209.515625 105.519531 209.125 103.65625 208.664062 101.894531 C 215.824219 102.875 222.65625 104.292969 229.023438 106.097656 C 229.933594 107.917969 230.757812 109.867188 231.496094 111.917969 C 224.648438 109.964844 217.398438 108.480469 209.859375 107.453125 Z M 234.179688 121.824219 C 226.988281 119.785156 219.261719 118.183594 211.160156 117.070312 C 210.871094 114.140625 210.511719 111.308594 210.050781 108.609375 C 217.773438 109.664062 225.113281 111.207031 231.929688 113.160156 C 232.824219 115.859375 233.574219 118.734375 234.179688 121.824219 Z M 254.210938 129.320312 C 248.535156 126.574219 242.226562 124.175781 235.394531 122.183594 C 234.816406 119.109375 234.109375 116.25 233.242188 113.546875 C 239.855469 115.527344 245.949219 117.878906 251.378906 120.597656 C 252.492188 123.339844 253.429688 126.257812 254.210938 129.320312 Z M 255.554688 129.96875 C 254.816406 126.949219 253.921875 124.089844 252.882812 121.390625 C 257.777344 123.945312 262.097656 126.804688 265.734375 129.925781 C 267.164062 132.785156 268.421875 135.746094 269.460938 138.761719 C 265.476562 135.570312 260.796875 132.609375 255.554688 129.96875 Z M 257.9375 151.617188 C 257.9375 150.835938 257.9375 150.042969 257.921875 149.246094 C 257.777344 142.863281 257.070312 136.886719 255.859375 131.371094 C 261.289062 134.15625 266.082031 137.289062 270.066406 140.699219 C 272.148438 147.371094 273.304688 154.347656 273.492188 161.566406 C 269.070312 157.914062 263.84375 154.578125 257.9375 151.617188 Z M 252.332031 189.597656 C 253.488281 185.570312 254.457031 181.539062 255.25 177.539062 C 261.101562 180.5 266.167969 183.804688 270.34375 187.417969 C 269.347656 191.214844 268.117188 195.042969 266.675781 198.824219 C 262.601562 195.417969 257.777344 192.339844 252.332031 189.597656 Z M 261.765625 210.03125 C 257.980469 206.871094 253.503906 203.996094 248.449219 201.453125 C 249.777344 197.886719 250.960938 194.304688 252.015625 190.695312 C 257.445312 193.4375 262.226562 196.53125 266.242188 199.9375 C 264.914062 203.332031 263.425781 206.695312 261.765625 210.03125 Z M 270.933594 220.503906 C 269.445312 217.960938 267.496094 215.476562 265.085938 213.050781 C 264.320312 212.285156 263.484375 211.535156 262.644531 210.796875 C 264.320312 207.476562 265.808594 204.113281 267.152344 200.730469 C 267.917969 201.425781 268.683594 202.117188 269.390625 202.828125 C 272.03125 205.484375 274.125 208.199219 275.699219 211 C 274.285156 214.207031 272.710938 217.382812 270.933594 220.503906 Z M 212.144531 274.167969 C 212.054688 273.316406 211.824219 272.464844 211.449219 271.625 C 219.652344 268.464844 227.320312 264.605469 234.382812 260.101562 C 235.277344 261.890625 235.742188 263.742188 235.785156 265.632812 C 226.917969 270.183594 218.539062 272.925781 212.144531 274.167969 Z M 211.722656 277.53125 C 211.984375 276.824219 212.128906 276.074219 212.171875 275.324219 C 218.539062 274.082031 226.875 271.394531 235.753906 266.902344 C 235.625 268.609375 235.148438 270.296875 234.339844 271.929688 C 226.554688 274.859375 218.726562 276.695312 211.722656 277.53125 Z M 205.976562 283.945312 C 206.972656 283.324219 207.867188 282.644531 208.648438 281.9375 C 214.484375 282.328125 220.808594 281.621094 227.046875 280.003906 C 225.34375 281.242188 223.40625 282.414062 221.3125 283.46875 C 216.488281 284.636719 212.605469 284.667969 205.976562 283.945312 Z M 171.011719 287.164062 C 175.101562 288.347656 179.808594 289.027344 184.734375 289.027344 C 187.171875 289.027344 189.527344 288.871094 191.765625 288.582031 C 192.515625 289.316406 193.296875 289.921875 194.089844 290.371094 C 191 290.644531 187.882812 290.804688 184.734375 290.804688 C 177.828125 290.804688 171.027344 290.109375 164.398438 288.78125 C 166.710938 288.582031 168.847656 288.046875 171.011719 287.164062 Z M 160.875 281.9375 C 161.65625 282.644531 162.550781 283.324219 163.546875 283.945312 C 156.875 284.667969 152.988281 284.636719 148.136719 283.453125 C 146.042969 282.398438 144.121094 281.242188 142.417969 279.988281 C 148.671875 281.621094 155.027344 282.328125 160.875 281.9375 Z M 157.308594 275.324219 C 157.351562 276.058594 157.496094 276.808594 157.757812 277.53125 C 150.75 276.679688 142.910156 274.859375 135.125 271.914062 C 134.316406 270.28125 133.839844 268.609375 133.726562 266.902344 C 142.59375 271.378906 150.925781 274.082031 157.308594 275.324219 Z M 135.082031 260.074219 C 142.160156 264.605469 149.828125 268.464844 158.03125 271.613281 C 157.640625 272.449219 157.410156 273.300781 157.324219 274.167969 C 150.925781 272.910156 142.5625 270.167969 133.683594 265.617188 C 133.726562 263.710938 134.214844 261.863281 135.082031 260.074219 Z M 97.910156 221.628906 C 96.25 224.75 95.28125 227.953125 95.023438 231.246094 C 93.359375 228.675781 91.800781 226.019531 90.371094 223.1875 C 90.414062 219.433594 91.351562 215.78125 93.101562 212.269531 C 94.53125 215.449219 96.132812 218.566406 97.910156 221.628906 Z M 106.847656 210.785156 C 105.984375 211.535156 105.160156 212.285156 104.378906 213.050781 C 101.984375 215.460938 100.03125 217.945312 98.546875 220.488281 C 96.785156 217.367188 95.195312 214.207031 93.792969 211 C 95.816406 207.375 98.703125 203.9375 102.328125 200.730469 C 103.671875 204.097656 105.175781 207.460938 106.847656 210.785156 Z M 121.046875 201.441406 C 115.976562 203.980469 111.5 206.855469 107.714844 210.019531 C 106.054688 206.695312 104.566406 203.316406 103.238281 199.9375 C 107.210938 196.585938 112.003906 193.496094 117.476562 190.738281 C 118.53125 194.320312 119.714844 197.902344 121.046875 201.441406 Z M 137.132812 183.15625 C 137.914062 186.808594 138.792969 190.507812 139.777344 194.21875 C 133.335938 196.082031 127.398438 198.335938 122.054688 200.933594 C 120.742188 197.382812 119.558594 193.816406 118.503906 190.234375 C 124.078125 187.519531 130.347656 185.136719 137.132812 183.15625 Z M 134.589844 169.496094 C 135.226562 173.597656 135.976562 177.769531 136.875 182 C 130.101562 183.964844 123.816406 186.332031 118.1875 189.09375 C 117.03125 185.003906 116.046875 180.917969 115.238281 176.859375 C 121.046875 174.03125 127.542969 171.546875 134.589844 169.496094 Z M 132.410156 145.390625 C 132.554688 152.613281 133.234375 160.308594 134.417969 168.324219 C 127.386719 170.363281 120.871094 172.816406 115.007812 175.675781 C 113.535156 167.933594 112.757812 160.308594 112.667969 152.988281 C 118.574219 150.070312 125.203125 147.53125 132.410156 145.390625 Z M 132.800781 131.746094 C 132.46875 135.515625 132.339844 139.484375 132.367188 143.601562 C 125.261719 145.679688 118.648438 148.195312 112.683594 151.066406 C 112.683594 150.476562 112.683594 149.867188 112.699219 149.277344 C 112.84375 142.707031 113.59375 136.554688 114.894531 130.921875 C 120.597656 128.105469 126.953125 125.621094 133.855469 123.542969 C 133.40625 126.15625 133.046875 128.871094 132.800781 131.746094 Z M 157.480469 138.34375 C 149.046875 139.484375 141.003906 141.144531 133.492188 143.269531 C 133.464844 139.355469 133.609375 135.527344 133.925781 131.832031 C 134.1875 128.8125 134.578125 125.925781 135.054688 123.210938 C 142.289062 121.085938 150.074219 119.425781 158.21875 118.285156 C 157.65625 124.753906 157.4375 131.628906 157.480469 138.34375 Z M 184.167969 116.4375 L 184.167969 136.554688 C 175.332031 136.582031 166.695312 137.160156 158.40625 138.230469 C 158.390625 131.066406 158.652344 124.292969 159.214844 118.140625 C 167.242188 117.070312 175.605469 116.480469 184.167969 116.4375 Z M 184.167969 106.917969 L 184.167969 115.308594 C 175.75 115.339844 167.402344 115.902344 159.328125 116.957031 C 159.632812 113.980469 160.007812 111.121094 160.484375 108.480469 C 168.066406 107.484375 176.011719 106.949219 184.167969 106.917969 Z M 184.167969 105.777344 C 176.140625 105.808594 168.285156 106.328125 160.6875 107.308594 C 161.0625 105.359375 161.480469 103.496094 161.945312 101.765625 C 169.09375 100.824219 176.542969 100.335938 184.167969 100.304688 Z M 185.296875 105.777344 L 185.296875 100.304688 C 192.9375 100.335938 200.386719 100.824219 207.535156 101.75 C 208.011719 103.484375 208.417969 105.34375 208.792969 107.308594 C 201.195312 106.328125 193.324219 105.808594 185.296875 105.777344 Z M 185.296875 115.308594 L 185.296875 106.917969 C 193.46875 106.933594 201.414062 107.46875 209.007812 108.464844 C 209.472656 111.121094 209.847656 113.953125 210.148438 116.925781 C 202.191406 115.886719 193.84375 115.339844 185.296875 115.308594 Z M 211.074219 138.230469 C 202.800781 137.144531 194.148438 136.566406 185.296875 136.554688 L 185.296875 116.4375 C 193.902344 116.464844 202.265625 117.042969 210.265625 118.082031 C 210.84375 124.25 211.101562 131.050781 211.074219 138.230469 Z M 235.566406 131.832031 C 235.886719 135.527344 236.015625 139.355469 235.984375 143.269531 C 228.492188 141.144531 220.445312 139.484375 212.011719 138.34375 C 212.042969 131.601562 211.839844 124.710938 211.261719 118.214844 C 219.4375 119.339844 227.191406 120.972656 234.398438 123.035156 C 234.902344 125.824219 235.292969 128.753906 235.566406 131.832031 Z M 237.113281 143.601562 C 237.15625 139.484375 237.011719 135.515625 236.695312 131.746094 C 236.433594 128.828125 236.074219 126.054688 235.609375 123.382812 C 242.511719 125.433594 248.867188 127.890625 254.558594 130.703125 C 255.871094 136.410156 256.636719 142.621094 256.796875 149.277344 C 256.8125 149.867188 256.796875 150.476562 256.8125 151.066406 C 250.847656 148.179688 244.230469 145.679688 237.113281 143.601562 Z M 235.046875 168.425781 C 236.261719 160.351562 236.9375 152.613281 237.082031 145.335938 C 244.246094 147.457031 250.875 150.011719 256.8125 152.960938 C 256.738281 160.324219 255.929688 168.023438 254.457031 175.820312 C 248.609375 172.945312 242.082031 170.476562 235.046875 168.425781 Z M 232.605469 182.015625 C 233.503906 177.8125 234.238281 173.683594 234.875 169.625 C 235.726562 169.871094 236.59375 170.101562 237.445312 170.363281 C 243.539062 172.28125 249.140625 174.507812 254.210938 177.003906 C 253.417969 181.019531 252.449219 185.0625 251.308594 189.09375 C 245.660156 186.347656 239.394531 183.964844 232.605469 182.015625 Z M 229.71875 194.21875 C 230.699219 190.492188 231.582031 186.78125 232.359375 183.113281 C 239.132812 185.0625 245.386719 187.445312 250.992188 190.191406 C 249.9375 193.785156 248.753906 197.382812 247.4375 200.949219 C 242.09375 198.347656 236.144531 196.082031 229.71875 194.21875 Z M 243.597656 210.421875 C 241.316406 215.5625 238.800781 220.53125 236.058594 225.3125 C 231.726562 223.1875 226.902344 221.355469 221.6875 219.839844 C 223.234375 215.664062 224.707031 211.359375 226.078125 206.972656 C 227.292969 203.058594 228.417969 199.171875 229.445312 195.332031 C 235.828125 197.164062 241.734375 199.402344 247.046875 202.003906 C 245.964844 204.832031 244.839844 207.648438 243.597656 210.421875 Z M 247.582031 232.621094 C 244.578125 230.121094 241.039062 227.839844 237.070312 225.816406 C 239.8125 221.023438 242.339844 216.039062 244.636719 210.882812 C 245.863281 208.113281 247.003906 205.324219 248.058594 202.507812 C 253.070312 205.050781 257.503906 207.910156 261.230469 211.058594 C 257.460938 218.464844 252.882812 225.703125 247.582031 232.621094 Z M 250.398438 235.175781 C 249.777344 234.554688 249.113281 233.949219 248.433594 233.355469 C 253.734375 226.453125 258.328125 219.230469 262.109375 211.824219 C 262.863281 212.503906 263.597656 213.167969 264.277344 213.859375 C 266.804688 216.386719 268.796875 218.972656 270.269531 221.628906 C 269.878906 222.308594 269.492188 222.988281 269.085938 223.652344 C 265.113281 230.078125 260.492188 236.042969 255.308594 241.5 C 254.066406 239.320312 252.433594 237.226562 250.398438 235.175781 Z M 231.394531 254.121094 C 231.003906 253.746094 230.585938 253.371094 230.167969 253.011719 C 236.363281 247.507812 242.226562 241.285156 247.523438 234.554688 C 247.597656 234.453125 247.667969 234.335938 247.742188 234.25 C 248.390625 234.8125 249.011719 235.390625 249.589844 235.96875 C 251.65625 238.035156 253.273438 240.171875 254.484375 242.351562 C 248.636719 248.375 242.035156 253.761719 234.800781 258.46875 C 233.933594 256.980469 232.792969 255.539062 231.394531 254.121094 Z M 209.167969 268.40625 C 209.082031 268.320312 209.007812 268.261719 208.921875 268.1875 C 215.867188 264.390625 222.757812 259.480469 229.3125 253.761719 C 229.761719 254.136719 230.195312 254.527344 230.597656 254.929688 C 231.941406 256.289062 233.027344 257.675781 233.863281 259.089844 C 226.785156 263.609375 219.117188 267.464844 210.914062 270.613281 C 210.453125 269.851562 209.875 269.113281 209.167969 268.40625 Z M 140.136719 253.734375 C 146.707031 259.464844 153.609375 264.375 160.558594 268.175781 C 160.472656 268.261719 160.382812 268.320312 160.3125 268.40625 C 159.605469 269.113281 159.027344 269.851562 158.550781 270.613281 C 150.347656 267.464844 142.691406 263.597656 135.617188 259.089844 C 136.714844 257.199219 138.246094 255.40625 140.136719 253.734375 Z M 121.722656 234.238281 C 121.8125 234.335938 121.882812 234.453125 121.96875 234.554688 C 127.253906 241.285156 133.117188 247.507812 139.3125 252.996094 C 138.894531 253.371094 138.476562 253.746094 138.070312 254.121094 C 136.671875 255.523438 135.53125 256.980469 134.664062 258.46875 C 127.441406 253.761719 120.84375 248.359375 114.996094 242.351562 C 116.570312 239.492188 118.851562 236.765625 121.722656 234.238281 Z M 121.046875 233.339844 C 120.367188 233.933594 119.703125 234.554688 119.082031 235.175781 C 117.03125 237.210938 115.414062 239.320312 114.171875 241.472656 C 108.972656 236.027344 104.367188 230.078125 100.410156 223.652344 C 99.988281 222.988281 99.613281 222.308594 99.210938 221.628906 C 101.128906 218.164062 103.890625 214.886719 107.371094 211.824219 C 111.167969 219.21875 115.746094 226.4375 121.046875 233.339844 Z M 124.859375 210.882812 C 127.140625 216.027344 129.667969 221.007812 132.410156 225.804688 C 128.4375 227.839844 124.902344 230.121094 121.910156 232.605469 C 116.613281 225.703125 112.019531 218.464844 108.25 211.058594 C 111.945312 207.953125 116.378906 205.09375 121.433594 202.550781 C 122.503906 205.351562 123.644531 208.125 124.859375 210.882812 Z M 143.414062 206.972656 C 144.789062 211.359375 146.261719 215.664062 147.792969 219.839844 C 142.578125 221.339844 137.753906 223.1875 133.421875 225.3125 C 130.691406 220.53125 128.164062 215.5625 125.882812 210.421875 C 124.65625 207.664062 123.53125 204.863281 122.460938 202.03125 C 127.730469 199.476562 133.636719 197.222656 140.066406 195.375 C 141.089844 199.203125 142.1875 203.085938 143.414062 206.972656 Z M 161.308594 190.941406 C 162.449219 199.679688 163.777344 208.199219 165.25 216.183594 C 159.546875 216.964844 154.101562 218.078125 149.003906 219.492188 C 146.128906 211.75 143.488281 203.503906 141.234375 195.042969 C 147.488281 193.28125 154.21875 191.910156 161.308594 190.941406 Z M 159.835938 178.433594 C 160.226562 182.234375 160.671875 186.046875 161.148438 189.800781 C 154.058594 190.753906 147.269531 192.125 140.929688 193.902344 C 139.964844 190.246094 139.082031 186.550781 138.289062 182.839844 C 144.988281 180.960938 152.226562 179.460938 159.835938 178.433594 Z M 158.566406 164.484375 C 158.765625 167.125 158.96875 169.554688 159.171875 171.691406 C 159.328125 173.554688 159.519531 175.429688 159.71875 177.292969 C 152.09375 178.304688 144.816406 179.792969 138.027344 181.683594 C 137.148438 177.511719 136.367188 173.335938 135.734375 169.164062 C 142.835938 167.15625 150.507812 165.582031 158.566406 164.484375 Z M 158.492188 163.355469 C 150.433594 164.425781 142.738281 165.984375 135.558594 168.007812 C 134.375 160.210938 133.652344 152.484375 133.523438 145.058594 C 140.960938 142.921875 149.003906 141.234375 157.496094 140.078125 C 157.566406 148.46875 158 156.585938 158.492188 163.355469 Z M 184.167969 161.640625 C 175.679688 161.652344 167.375 162.203125 159.402344 163.226562 C 158.824219 155.242188 158.476562 147.398438 158.421875 139.949219 C 166.636719 138.851562 175.273438 138.285156 184.167969 138.257812 Z M 210.078125 163.269531 C 202.121094 162.230469 193.800781 161.667969 185.296875 161.640625 L 185.296875 138.257812 C 194.148438 138.273438 202.800781 138.851562 211.074219 139.933594 C 211.015625 147.398438 210.667969 155.253906 210.078125 163.269531 Z M 211.003906 163.386719 C 211.492188 156.597656 211.910156 148.484375 212 140.046875 C 220.433594 141.191406 228.476562 142.863281 235.972656 145.015625 C 235.828125 152.46875 235.105469 160.253906 233.921875 168.09375 C 226.757812 166.058594 219.058594 164.46875 211.003906 163.386719 Z M 209.773438 177.292969 C 209.960938 175.429688 210.148438 173.554688 210.324219 171.691406 C 210.511719 169.566406 210.714844 167.167969 210.914062 164.542969 C 218.871094 165.625 226.542969 167.226562 233.746094 169.292969 C 233.097656 173.421875 232.332031 177.554688 231.453125 181.683594 C 224.664062 179.792969 217.386719 178.304688 209.773438 177.292969 Z M 208.332031 189.800781 C 208.808594 186.03125 209.253906 182.234375 209.660156 178.40625 C 217.226562 179.429688 224.476562 180.890625 231.21875 182.78125 C 230.410156 186.523438 229.53125 190.234375 228.5625 193.902344 C 222.207031 192.125 215.4375 190.753906 208.332031 189.800781 Z M 204.230469 216.183594 C 205.703125 208.183594 207.046875 199.664062 208.1875 190.925781 C 215.234375 191.878906 221.976562 193.238281 228.273438 195 C 226.007812 203.476562 223.347656 211.75 220.488281 219.507812 C 215.390625 218.078125 209.933594 216.964844 204.230469 216.183594 Z M 210.324219 243.03125 C 206.726562 242.035156 202.886719 241.226562 198.871094 240.664062 C 200.691406 233.789062 202.4375 225.859375 204.042969 217.296875 C 209.671875 218.0625 215.058594 219.160156 220.101562 220.558594 C 217.023438 228.792969 213.6875 236.402344 210.324219 243.03125 Z M 221.054688 247.0625 C 218.152344 245.644531 214.960938 244.417969 211.507812 243.378906 C 214.914062 236.675781 218.238281 229.066406 221.300781 220.894531 C 226.453125 222.378906 231.234375 224.199219 235.507812 226.292969 C 231.207031 233.714844 226.351562 240.664062 221.054688 247.0625 Z M 222.078125 247.582031 C 227.363281 241.183594 232.214844 234.222656 236.519531 226.800781 C 240.449219 228.792969 243.929688 231.058594 246.890625 233.515625 C 246.800781 233.628906 246.714844 233.730469 246.628906 233.847656 C 241.34375 240.578125 235.480469 246.785156 229.3125 252.261719 C 227.234375 250.542969 224.808594 248.96875 222.078125 247.582031 Z M 210.988281 244.402344 C 214.351562 245.398438 217.484375 246.570312 220.300781 247.925781 C 215.148438 254.050781 209.558594 259.652344 203.609375 264.605469 C 202.25 263.957031 200.761719 263.367188 199.175781 262.875 C 203.03125 258.339844 207.058594 251.984375 210.988281 244.402344 Z M 198.582031 241.773438 C 202.511719 242.308594 206.28125 243.089844 209.804688 244.070312 C 205.804688 251.828125 201.757812 258.167969 197.988281 262.527344 C 196.011719 261.980469 193.902344 261.546875 191.707031 261.257812 C 193.976562 256.882812 196.316406 250.136719 198.582031 241.773438 Z M 185.296875 240.851562 C 189.5 240.867188 193.601562 241.140625 197.542969 241.628906 C 195.246094 250.007812 192.847656 256.75 190.496094 261.113281 C 188.820312 260.925781 187.074219 260.824219 185.296875 260.808594 Z M 178.984375 261.113281 C 176.632812 256.75 174.234375 250.007812 171.953125 241.628906 C 175.851562 241.125 179.953125 240.867188 184.167969 240.835938 L 184.167969 260.808594 C 182.40625 260.824219 180.660156 260.925781 178.984375 261.113281 Z M 171.503906 262.527344 C 167.734375 258.167969 163.691406 251.828125 159.691406 244.070312 C 163.199219 243.105469 166.957031 242.324219 170.914062 241.773438 C 173.164062 250.152344 175.503906 256.882812 177.785156 261.257812 C 175.578125 261.53125 173.46875 261.964844 171.503906 262.527344 Z M 165.886719 264.605469 C 159.9375 259.652344 154.347656 254.050781 149.175781 247.941406 C 152.007812 246.597656 155.128906 245.414062 158.507812 244.402344 C 162.433594 251.984375 166.464844 258.339844 170.304688 262.859375 C 168.71875 263.367188 167.230469 263.941406 165.886719 264.605469 Z M 147.402344 247.566406 C 144.6875 248.96875 142.246094 250.542969 140.167969 252.246094 C 134 246.773438 128.136719 240.578125 122.863281 233.847656 C 122.765625 233.730469 122.675781 233.617188 122.589844 233.5 C 125.523438 231.074219 129.015625 228.835938 132.972656 226.828125 C 137.277344 234.238281 142.117188 241.183594 147.402344 247.566406 Z M 157.972656 243.378906 C 154.535156 244.402344 151.328125 245.632812 148.441406 247.046875 C 143.140625 240.664062 138.304688 233.730469 134 226.324219 C 138.246094 224.242188 143.027344 222.4375 148.195312 220.9375 C 151.257812 229.082031 154.578125 236.691406 157.972656 243.378906 Z M 170.609375 240.664062 C 166.59375 241.226562 162.765625 242.035156 159.171875 243.03125 C 155.804688 236.402344 152.484375 228.792969 149.410156 220.574219 C 154.417969 219.1875 159.792969 218.089844 165.453125 217.3125 C 167.054688 225.859375 168.804688 233.789062 170.609375 240.664062 Z M 184.167969 216.027344 L 184.167969 239.710938 C 179.867188 239.738281 175.679688 240.027344 171.648438 240.53125 C 169.816406 233.660156 168.039062 225.730469 166.421875 217.179688 C 172.097656 216.445312 178.046875 216.054688 184.167969 216.027344 Z M 184.167969 189.382812 L 184.167969 214.898438 C 178.003906 214.914062 171.980469 215.316406 166.21875 216.054688 C 164.714844 208.054688 163.375 199.519531 162.234375 190.8125 C 169.25 189.902344 176.601562 189.410156 184.167969 189.382812 Z M 184.167969 176.773438 L 184.167969 188.253906 C 176.585938 188.269531 169.195312 188.761719 162.089844 189.667969 C 161.597656 185.914062 161.148438 182.117188 160.746094 178.289062 C 168.242188 177.335938 176.082031 176.800781 184.167969 176.773438 Z M 184.167969 175.648438 C 176.097656 175.660156 168.195312 176.179688 160.628906 177.164062 C 160.195312 172.890625 159.804688 168.601562 159.488281 164.367188 C 167.375 163.34375 175.648438 162.792969 184.167969 162.765625 Z M 185.296875 175.648438 L 185.296875 162.78125 C 193.699219 162.808594 201.992188 163.386719 209.992188 164.425781 C 209.6875 168.644531 209.296875 172.902344 208.851562 177.164062 C 201.28125 176.179688 193.382812 175.660156 185.296875 175.648438 Z M 185.296875 188.253906 L 185.296875 176.773438 C 193.355469 176.800781 201.210938 177.308594 208.75 178.277344 C 208.34375 182.101562 207.898438 185.914062 207.40625 189.683594 C 200.300781 188.761719 192.890625 188.269531 185.296875 188.253906 Z M 185.296875 214.898438 L 185.296875 189.382812 C 192.835938 189.394531 200.199219 189.886719 207.261719 190.796875 C 206.121094 199.519531 204.761719 208.054688 203.277344 216.070312 C 197.5 215.316406 191.460938 214.914062 185.296875 214.898438 Z M 185.296875 216.027344 C 191.40625 216.054688 197.355469 216.429688 203.074219 217.167969 C 201.457031 225.730469 199.679688 233.660156 197.832031 240.546875 C 193.800781 240.027344 189.597656 239.738281 185.296875 239.710938 Z M 161.4375 267.378906 C 154.507812 263.609375 147.574219 258.730469 141.003906 252.980469 C 143.027344 251.351562 145.421875 249.832031 148.136719 248.460938 C 153.292969 254.585938 158.867188 260.171875 164.789062 265.171875 C 163.546875 265.835938 162.421875 266.570312 161.4375 267.378906 Z M 204.691406 265.171875 C 210.625 260.1875 216.199219 254.585938 221.34375 248.460938 C 224.027344 249.832031 226.410156 251.351562 228.449219 253.023438 C 221.875 258.742188 214.972656 263.625 208.042969 267.394531 C 207.058594 266.585938 205.949219 265.847656 204.691406 265.171875 Z M 196.503906 290.109375 C 195.363281 289.851562 194.265625 289.257812 193.210938 288.363281 C 195.074219 288.058594 196.835938 287.65625 198.496094 287.179688 C 200.660156 288.046875 202.785156 288.582031 205.066406 288.78125 C 202.25 289.347656 199.375 289.777344 196.503906 290.109375 Z M 207.953125 280.21875 C 203.652344 284.535156 194.523438 287.324219 184.734375 287.324219 C 174.941406 287.324219 165.828125 284.535156 161.511719 280.21875 C 159.835938 278.542969 158.984375 276.753906 158.984375 274.917969 C 158.984375 268.058594 170.535156 262.484375 184.734375 262.484375 C 194.523438 262.484375 203.652344 265.285156 207.953125 269.605469 C 209.644531 271.28125 210.496094 273.070312 210.496094 274.917969 C 210.496094 276.753906 209.644531 278.542969 207.953125 280.21875 Z M 96.0625 232.878906 C 96.121094 229.414062 97 226.046875 98.601562 222.800781 C 98.878906 223.289062 99.152344 223.765625 99.457031 224.257812 C 103.511719 230.84375 108.265625 236.953125 113.609375 242.539062 C 112.324219 245.082031 111.585938 247.695312 111.398438 250.367188 C 105.867188 245.414062 100.625 239.625 96.0625 232.878906 Z M 112.46875 251.320312 C 112.539062 248.589844 113.21875 245.949219 114.445312 243.40625 C 120.324219 249.386719 126.910156 254.773438 134.128906 259.464844 C 133.21875 261.285156 132.714844 263.148438 132.585938 265.054688 C 125.914062 261.53125 119.007812 257.011719 112.46875 251.320312 Z M 138.878906 276.984375 C 137.726562 275.84375 136.785156 274.660156 136.019531 273.460938 C 143.71875 276.246094 151.429688 277.964844 158.304688 278.746094 C 158.695312 279.480469 159.1875 280.175781 159.792969 280.867188 C 153.554688 281.144531 146.765625 280.175781 140.195312 278.210938 C 139.746094 277.808594 139.285156 277.402344 138.878906 276.984375 Z M 155.488281 286.558594 C 154.390625 286.183594 153.308594 285.777344 152.269531 285.359375 C 155.894531 285.765625 159.632812 285.53125 165.238281 284.882812 C 166.480469 285.53125 167.820312 286.109375 169.28125 286.601562 C 166.203125 287.640625 163.128906 287.960938 159.375 287.613281 C 159.359375 287.613281 159.328125 287.613281 159.328125 287.613281 C 158.042969 287.296875 156.757812 286.933594 155.488281 286.558594 Z M 213.976562 286.558594 C 212.707031 286.933594 211.433594 287.28125 210.148438 287.613281 C 210.136719 287.613281 210.136719 287.613281 210.121094 287.613281 C 206.367188 287.960938 203.320312 287.640625 200.257812 286.617188 C 201.714844 286.109375 203.074219 285.53125 204.300781 284.898438 C 209.859375 285.53125 213.585938 285.765625 217.199219 285.359375 C 216.15625 285.777344 215.074219 286.183594 213.976562 286.558594 Z M 229.269531 278.210938 C 222.699219 280.175781 215.925781 281.144531 209.714844 280.867188 C 210.308594 280.175781 210.800781 279.480469 211.203125 278.746094 C 218.050781 277.964844 225.761719 276.261719 233.457031 273.472656 C 232.679688 274.660156 231.738281 275.84375 230.597656 276.984375 C 230.179688 277.402344 229.71875 277.808594 229.269531 278.210938 Z M 236.882812 265.070312 C 236.765625 263.148438 236.246094 261.300781 235.335938 259.464844 C 242.570312 254.773438 249.15625 249.398438 255.035156 243.40625 C 256.289062 245.976562 256.941406 248.636719 257 251.335938 C 250.457031 257.011719 243.554688 261.546875 236.882812 265.070312 Z M 258.082031 250.382812 C 257.894531 247.710938 257.15625 245.097656 255.859375 242.554688 C 261.230469 236.953125 265.980469 230.84375 270.039062 224.257812 C 270.328125 223.765625 270.601562 223.289062 270.890625 222.800781 C 272.507812 226.078125 273.359375 229.457031 273.402344 232.90625 C 268.839844 239.636719 263.613281 245.429688 258.082031 250.382812 Z M 274.457031 231.277344 C 274.183594 227.984375 273.214844 224.777344 271.585938 221.644531 C 273.347656 218.566406 274.964844 215.449219 276.378906 212.269531 C 278.15625 215.839844 279.066406 219.476562 279.109375 223.21875 C 277.664062 226.035156 276.105469 228.71875 274.457031 231.277344 Z M 270.660156 186.175781 C 266.386719 182.550781 261.273438 179.257812 255.511719 176.339844 C 257 168.570312 257.820312 160.886719 257.921875 153.507812 C 263.914062 156.554688 269.160156 160.019531 273.519531 163.820312 C 273.519531 170.679688 272.683594 177.742188 270.964844 184.960938 C 270.875 185.367188 270.761719 185.769531 270.660156 186.175781 Z M 220.433594 94.585938 C 223.507812 97.34375 226.121094 100.738281 228.304688 104.738281 C 222.035156 103.007812 215.335938 101.664062 208.34375 100.722656 C 207.320312 97.042969 206.035156 93.820312 204.445312 91.265625 C 210.035156 92.042969 215.390625 93.15625 220.433594 94.585938 Z M 149.003906 94.628906 C 154.042969 93.199219 159.429688 92.074219 165.035156 91.28125 C 163.445312 93.835938 162.175781 97.054688 161.148438 100.722656 C 154.160156 101.675781 147.460938 103.019531 141.191406 104.738281 C 143.34375 100.78125 145.941406 97.386719 149.003906 94.628906 Z M 98.515625 184.960938 C 96.8125 177.742188 95.976562 170.664062 95.960938 163.804688 C 100.277344 160.066406 105.519531 156.613281 111.558594 153.550781 C 111.671875 160.875 112.480469 168.46875 113.953125 176.179688 C 108.179688 179.085938 103.066406 182.347656 98.777344 185.957031 C 98.691406 185.625 98.601562 185.292969 98.515625 184.960938 Z M 85.777344 211.636719 C 85.777344 207.664062 86.746094 203.792969 88.582031 200.097656 C 89.664062 203.734375 90.992188 207.347656 92.523438 210.898438 C 90.734375 214.207031 89.679688 217.613281 89.347656 221.082031 C 88.046875 218.367188 86.863281 215.535156 85.808594 212.574219 C 85.792969 212.269531 85.777344 211.953125 85.777344 211.636719 Z M 91.121094 229.328125 C 90.820312 228.171875 90.617188 227.015625 90.5 225.847656 C 91.886719 228.402344 93.359375 230.855469 94.921875 233.183594 C 94.921875 233.195312 94.921875 233.210938 94.921875 233.226562 C 94.921875 234.886719 95.109375 236.53125 95.46875 238.164062 C 93.867188 235.289062 92.421875 232.34375 91.121094 229.328125 Z M 102.761719 249.355469 C 102.691406 249.285156 102.617188 249.226562 102.53125 249.199219 C 101 247.117188 99.570312 244.980469 98.214844 242.800781 C 97.027344 240.214844 96.320312 237.574219 96.121094 234.902344 C 100.683594 241.398438 105.867188 247.003906 111.324219 251.796875 C 111.339844 254.441406 111.917969 257.054688 113.03125 259.597656 C 109.246094 256.59375 105.75 253.199219 102.761719 249.355469 Z M 120.554688 268.074219 C 119.066406 266.65625 117.765625 265.199219 116.683594 263.699219 C 122.242188 267.464844 128.25 270.484375 134.332031 272.824219 C 135.167969 274.398438 136.296875 275.914062 137.726562 277.402344 C 133.074219 275.800781 128.613281 273.707031 124.582031 271.191406 C 123.226562 270.183594 121.882812 269.15625 120.554688 268.074219 Z M 248.925781 268.074219 C 247.566406 269.171875 246.183594 270.238281 244.78125 271.265625 C 240.765625 273.777344 236.304688 275.84375 231.683594 277.429688 C 233.097656 275.972656 234.238281 274.425781 235.105469 272.839844 C 241.183594 270.515625 247.191406 267.496094 252.753906 263.726562 C 251.683594 265.214844 250.398438 266.671875 248.925781 268.074219 Z M 266.933594 249.199219 C 266.863281 249.226562 266.789062 249.285156 266.730469 249.355469 C 263.726562 253.214844 260.21875 256.605469 256.433594 259.625 C 257.546875 257.070312 258.125 254.453125 258.140625 251.8125 C 263.597656 247.015625 268.78125 241.414062 273.347656 234.945312 C 273.144531 237.617188 272.421875 240.246094 271.253906 242.828125 C 269.894531 244.996094 268.464844 247.117188 266.933594 249.199219 Z M 273.996094 238.164062 C 274.355469 236.546875 274.546875 234.886719 274.546875 233.226562 C 276.105469 230.886719 277.578125 228.460938 278.964844 225.890625 C 278.847656 227.042969 278.644531 228.1875 278.359375 229.339844 C 277.042969 232.34375 275.597656 235.304688 273.996094 238.164062 Z M 277.835938 147.152344 C 275.945312 144.699219 273.664062 142.34375 271.078125 140.09375 C 270.183594 137.304688 269.128906 134.5625 267.917969 131.890625 C 269.78125 133.679688 271.441406 135.527344 272.855469 137.464844 C 274.703125 140.597656 276.351562 143.847656 277.835938 147.152344 Z M 246.585938 111.398438 C 241.472656 108.984375 235.839844 106.890625 229.804688 105.15625 C 227.839844 101.34375 225.5 98.050781 222.773438 95.25 C 226.785156 96.492188 230.585938 97.953125 234.109375 99.582031 C 235.480469 100.347656 236.839844 101.128906 238.179688 101.964844 C 241.359375 104.566406 244.175781 107.726562 246.585938 111.398438 Z M 200.171875 88.015625 C 200.820312 88.535156 201.425781 89.128906 202.019531 89.820312 C 196.605469 89.171875 191.015625 88.824219 185.296875 88.796875 L 185.296875 86.875 C 190.320312 86.890625 195.289062 87.277344 200.171875 88.015625 Z M 184.167969 86.859375 L 184.167969 88.796875 C 178.480469 88.824219 172.875 89.183594 167.460938 89.835938 C 168.039062 89.140625 168.660156 88.535156 169.308594 88.015625 C 174.160156 87.277344 179.128906 86.890625 184.167969 86.859375 Z M 96.695312 137.40625 C 98.097656 135.515625 99.714844 133.679688 101.550781 131.933594 C 100.320312 134.632812 99.265625 137.40625 98.371094 140.238281 C 95.742188 142.503906 93.476562 144.902344 91.585938 147.355469 C 93.117188 143.933594 94.820312 140.613281 96.695312 137.40625 Z M 82.789062 186.898438 C 82.976562 184.050781 83.640625 181.265625 84.769531 178.550781 C 85.144531 185.238281 86.285156 191.910156 88.117188 198.480469 C 86.242188 201.929688 85.128906 205.484375 84.78125 209.136719 C 83.453125 202.523438 82.761719 195.722656 82.761719 188.832031 C 82.761719 188.183594 82.773438 187.53125 82.789062 186.898438 Z M 81.027344 188.585938 C 81.027344 188.660156 81.042969 188.714844 81.070312 188.789062 C 81.070312 188.804688 81.054688 188.816406 81.054688 188.832031 C 81.054688 216.515625 91.84375 242.554688 111.425781 262.136719 C 131.011719 281.71875 157.035156 292.492188 184.734375 292.492188 C 241.863281 292.492188 288.351562 246.035156 288.410156 188.917969 C 288.453125 188.816406 288.480469 188.703125 288.480469 188.585938 C 288.480469 187.675781 288.421875 186.78125 288.335938 185.886719 C 287.601562 159.300781 276.929688 134.402344 258.039062 115.527344 C 238.457031 95.945312 212.433594 85.15625 184.734375 85.15625 C 157.046875 85.15625 131.011719 95.945312 111.425781 115.527344 C 92.421875 134.53125 81.734375 159.601562 81.128906 186.390625 C 81.054688 187.128906 81.027344 187.851562 81.027344 188.585938 " fill-opacity="1" fill-rule="nonzero"/><g clip-path="url(#fb3e8401ec)"><path fill="#800200" d="M 294.488281 209.023438 C 292.914062 209.152344 291.902344 210.207031 292.222656 211.359375 C 292.539062 212.53125 294.070312 213.367188 295.644531 213.238281 C 306.648438 212.3125 315.488281 210.652344 321.566406 208.285156 C 328.023438 205.773438 331.558594 202.421875 331.558594 198.25 C 331.558594 189.582031 315.039062 179.53125 288.351562 170.304688 C 262.585938 161.394531 227.046875 152.960938 187.835938 147.140625 C 168.023438 144.207031 149.191406 142.214844 132.078125 141.117188 C 107.296875 139.527344 86.066406 139.847656 70.746094 141.925781 C 54.484375 144.136719 44.5625 148.484375 43.539062 154.867188 C 43.480469 155.242188 43.449219 155.617188 43.449219 155.976562 C 43.449219 159.574219 46.136719 163.328125 51.105469 167.125 C 55.886719 170.75 62.847656 174.492188 71.597656 178.1875 C 73.042969 178.796875 74.789062 178.492188 75.496094 177.480469 C 76.203125 176.484375 75.613281 175.183594 74.167969 174.5625 C 65.949219 171.097656 59.464844 167.632812 55.148438 164.339844 C 51.335938 161.4375 49.269531 158.734375 49.269531 156.351562 C 49.269531 156.121094 49.300781 155.90625 49.328125 155.71875 C 50.050781 151.226562 58.414062 147.976562 72.261719 146.101562 C 87.050781 144.078125 107.757812 143.804688 132.078125 145.347656 C 149.003906 146.433594 167.632812 148.410156 187.171875 151.3125 C 225.90625 157.046875 260.941406 165.351562 286.257812 174.101562 C 310.632812 182.535156 325.726562 191.128906 325.726562 197.871094 C 325.726562 200.457031 323.167969 202.683594 318.492188 204.5 C 312.988281 206.640625 304.800781 208.15625 294.488281 209.023438 " fill-opacity="1" fill-rule="nonzero"/></g><g clip-path="url(#182c966dd0)"><path fill="#800200" d="M 291.789062 82.789062 L 291.933594 82.789062 C 292.914062 95.714844 303.226562 106.039062 316.152344 107.007812 L 316.152344 107.164062 C 303.226562 108.132812 292.914062 118.457031 291.933594 131.382812 L 291.789062 131.382812 C 290.804688 118.457031 280.496094 108.132812 267.570312 107.164062 L 267.570312 107.007812 C 280.496094 106.039062 290.804688 95.714844 291.789062 82.789062 " fill-opacity="1" fill-rule="evenodd"/></g><path fill="#800200" d="M 316.542969 127.382812 L 316.613281 127.382812 C 317.019531 132.886719 321.40625 137.277344 326.894531 137.679688 L 326.894531 137.753906 C 321.40625 138.15625 317.019531 142.546875 316.613281 148.035156 L 316.542969 148.035156 C 316.136719 142.546875 311.746094 138.15625 306.246094 137.753906 L 306.246094 137.679688 C 311.746094 137.277344 316.136719 132.886719 316.542969 127.382812 " fill-opacity="1" fill-rule="evenodd"/><g fill="#800200" fill-opacity="1"><g transform="translate(86.591867, 180.497924)"><g><path d="M 36.976562 -58.605469 C 38.683594 -58.726562 40.203125 -58.316406 41.535156 -57.378906 C 42.460938 -56.722656 43.171875 -55.890625 43.675781 -54.875 C 44.066406 -54.074219 44.296875 -53.222656 44.359375 -52.316406 L 47.800781 -3.960938 C 47.867188 -3.054688 47.757812 -2.179688 47.484375 -1.332031 C 47.128906 -0.253906 46.542969 0.671875 45.722656 1.449219 C 44.535156 2.570312 43.085938 3.1875 41.378906 3.3125 L 33.21875 3.890625 C 32.59375 3.9375 31.925781 3.882812 31.207031 3.730469 C 30.007812 3.480469 28.976562 2.980469 28.117188 2.234375 L 27.703125 1.875 L 2.28125 -29.523438 L 7.128906 -33.449219 L 13.351562 -33.890625 L 15.28125 -6.765625 L -6.625 -5.207031 L -9.703125 -48.472656 C -9.761719 -49.308594 -9.675781 -50.121094 -9.449219 -50.90625 C -9.140625 -51.960938 -8.605469 -52.882812 -7.847656 -53.671875 C -6.644531 -54.921875 -5.140625 -55.609375 -3.34375 -55.738281 L 4.882812 -56.324219 C 5.308594 -56.351562 5.753906 -56.347656 6.222656 -56.300781 C 7.109375 -56.21875 7.941406 -55.972656 8.714844 -55.558594 C 9.792969 -54.988281 10.640625 -54.179688 11.261719 -53.132812 L 5.894531 -49.953125 L 10.738281 -53.886719 L 35.875 -22.921875 L 31.03125 -18.988281 L 24.808594 -18.546875 L 22.515625 -50.761719 C 22.445312 -51.738281 22.574219 -52.675781 22.902344 -53.574219 C 23.296875 -54.664062 23.929688 -55.589844 24.804688 -56.351562 C 25.96875 -57.359375 27.367188 -57.921875 29 -58.039062 Z M 37.859375 -46.160156 L 29.882812 -45.59375 C 31.019531 -45.671875 32.050781 -46.117188 32.980469 -46.925781 C 33.742188 -47.582031 34.292969 -48.382812 34.632812 -49.332031 C 34.90625 -50.089844 35.015625 -50.863281 34.960938 -51.648438 L 38.65625 0.304688 L 0.757812 -46.378906 L 0.523438 -46.773438 C 1.097656 -45.808594 1.878906 -45.0625 2.871094 -44.535156 C 3.558594 -44.171875 4.285156 -43.953125 5.046875 -43.878906 C 5.265625 -43.859375 5.503906 -43.859375 5.765625 -43.878906 L -2.457031 -43.292969 C -1.953125 -43.328125 -1.453125 -43.441406 -0.957031 -43.628906 C -0.160156 -43.929688 0.539062 -44.390625 1.136719 -45.011719 C 1.800781 -45.703125 2.265625 -46.5 2.53125 -47.414062 C 2.71875 -48.058594 2.789062 -48.707031 2.742188 -49.355469 L 5.378906 -12.316406 L -0.84375 -11.871094 L -1.289062 -18.097656 L 8.175781 -18.769531 L 8.617188 -12.546875 L 2.394531 -12.101562 L -0.5 -52.785156 L 37.054688 -6.402344 L 32.203125 -2.476562 L 36.292969 -7.191406 C 35.523438 -7.859375 34.683594 -8.289062 33.777344 -8.480469 C 33.351562 -8.566406 32.871094 -8.59375 32.332031 -8.554688 L 40.496094 -9.136719 C 40.050781 -9.105469 39.609375 -9.011719 39.167969 -8.855469 C 38.414062 -8.589844 37.746094 -8.179688 37.152344 -7.625 C 36.4375 -6.949219 35.929688 -6.144531 35.621094 -5.207031 C 35.394531 -4.503906 35.304688 -3.792969 35.355469 -3.074219 L 31.914062 -51.433594 C 31.964844 -50.710938 32.15625 -50.019531 32.480469 -49.359375 C 32.917969 -48.476562 33.535156 -47.75 34.339844 -47.183594 C 35.003906 -46.714844 35.726562 -46.402344 36.507812 -46.25 C 36.96875 -46.160156 37.417969 -46.128906 37.859375 -46.160156 Z M 37.859375 -46.160156 "/></g></g></g><g fill="#800200" fill-opacity="1"><g transform="translate(129.19538, 177.473191)"><g><path d="M 44.367188 -5.042969 C 45.011719 -3.855469 45.273438 -2.59375 45.152344 -1.257812 C 45.046875 -0.0742188 44.648438 1.011719 43.957031 2.003906 C 43.335938 2.894531 42.550781 3.59375 41.609375 4.105469 C 40.664062 4.621094 39.648438 4.894531 38.566406 4.929688 L 30.015625 5.222656 C 28.609375 5.269531 27.328125 4.933594 26.160156 4.210938 C 24.851562 3.402344 23.925781 2.265625 23.382812 0.808594 L 12.695312 -26.386719 L 18.503906 -28.667969 L 24.457031 -26.808594 L 15.730469 1.152344 L 9.777344 -0.703125 L 15.960938 0.113281 C 15.835938 1.058594 15.523438 1.9375 15.027344 2.742188 C 14.503906 3.585938 13.824219 4.277344 12.988281 4.816406 C 11.921875 5.507812 10.71875 5.878906 9.382812 5.921875 L 0.894531 6.210938 C -0.0898438 6.246094 -1.023438 6.09375 -1.910156 5.757812 C -3.238281 5.25 -4.300781 4.40625 -5.089844 3.234375 C -5.734375 2.277344 -6.109375 1.234375 -6.21875 0.105469 C -6.335938 -1.09375 -6.140625 -2.242188 -5.636719 -3.34375 L 0.0351562 -0.746094 L -5.855469 -2.800781 L 11.273438 -51.890625 L 17.164062 -49.835938 L 11.179688 -51.605469 C 11.65625 -53.207031 12.589844 -54.457031 13.980469 -55.359375 C 15.050781 -56.050781 16.242188 -56.417969 17.558594 -56.464844 C 18.875 -56.507812 20.089844 -56.222656 21.203125 -55.605469 C 22.652344 -54.800781 23.667969 -53.617188 24.25 -52.050781 L 18.402344 -49.878906 L 24.136719 -52.335938 L 44.621094 -4.523438 L 38.886719 -2.066406 Z M 33.265625 0.65625 L 12.609375 -47.5625 L 12.554688 -47.707031 C 13.042969 -46.386719 13.910156 -45.382812 15.148438 -44.695312 C 16.050781 -44.195312 16.996094 -43.960938 17.980469 -43.992188 C 18.96875 -44.027344 19.894531 -44.324219 20.761719 -44.882812 C 21.949219 -45.65625 22.746094 -46.714844 23.144531 -48.066406 L 23.101562 -47.921875 L 5.832031 1.585938 L 5.707031 1.851562 C 6.136719 0.917969 6.300781 -0.0625 6.199219 -1.097656 C 6.105469 -2.0625 5.792969 -2.941406 5.257812 -3.734375 C 4.578125 -4.746094 3.671875 -5.46875 2.539062 -5.902344 C 1.855469 -6.164062 1.164062 -6.28125 0.46875 -6.257812 L 8.957031 -6.546875 C 7.992188 -6.515625 7.078125 -6.21875 6.210938 -5.65625 C 5.476562 -5.179688 4.878906 -4.570312 4.414062 -3.820312 C 3.976562 -3.109375 3.699219 -2.34375 3.589844 -1.519531 L 3.660156 -2.050781 L 17.828125 -47.445312 L 35.082031 -3.539062 C 34.628906 -4.753906 33.84375 -5.707031 32.726562 -6.398438 C 31.75 -7.003906 30.703125 -7.285156 29.589844 -7.25 L 38.140625 -7.539062 C 37.261719 -7.507812 36.433594 -7.28125 35.652344 -6.855469 C 34.871094 -6.433594 34.226562 -5.859375 33.726562 -5.140625 C 33.152344 -4.320312 32.820312 -3.398438 32.726562 -2.382812 C 32.621094 -1.210938 32.847656 -0.113281 33.402344 0.910156 Z M 33.265625 0.65625 "/></g></g></g><g fill="#800200" fill-opacity="1"><g transform="translate(169.134695, 176.176287)"><g><path d="M 10.136719 -37.878906 L 25.800781 -37.917969 L 25.890625 -0.621094 C 25.890625 0.355469 25.699219 1.28125 25.3125 2.160156 C 24.84375 3.21875 24.148438 4.097656 23.222656 4.796875 C 21.992188 5.722656 20.558594 6.1875 18.921875 6.191406 L 10.925781 6.210938 C 9.214844 6.214844 7.726562 5.703125 6.460938 4.671875 C 5.582031 3.960938 4.929688 3.078125 4.5 2.027344 C 4.160156 1.207031 3.992188 0.339844 3.988281 -0.566406 L 3.898438 -37.867188 Z M 10.167969 -25.402344 L 10.152344 -31.640625 L 16.390625 -31.65625 L 16.464844 -0.597656 C 16.464844 -1.320312 16.324219 -2.023438 16.042969 -2.707031 C 15.671875 -3.617188 15.101562 -4.382812 14.339844 -5.003906 C 13.707031 -5.515625 13.007812 -5.875 12.238281 -6.082031 C 11.789062 -6.207031 11.339844 -6.265625 10.894531 -6.265625 L 18.894531 -6.285156 C 17.753906 -6.28125 16.695312 -5.910156 15.710938 -5.167969 C 14.910156 -4.5625 14.304688 -3.800781 13.898438 -2.882812 C 13.574219 -2.144531 13.410156 -1.378906 13.414062 -0.589844 L 13.335938 -31.648438 L 19.574219 -31.664062 L 19.589844 -25.425781 Z M 0.597656 -34.867188 C -1.113281 -34.863281 -2.601562 -35.375 -3.867188 -36.40625 C -4.746094 -37.117188 -5.398438 -38 -5.828125 -39.046875 C -6.167969 -39.871094 -6.335938 -40.738281 -6.339844 -41.644531 L -6.355469 -49.023438 C -6.359375 -49.929688 -6.195312 -50.796875 -5.859375 -51.621094 C -5.433594 -52.671875 -4.785156 -53.558594 -3.910156 -54.277344 C -2.652344 -55.3125 -1.164062 -55.832031 0.546875 -55.835938 L 29.003906 -55.90625 C 30.714844 -55.910156 32.203125 -55.394531 33.46875 -54.367188 C 34.347656 -53.652344 35 -52.769531 35.429688 -51.722656 C 35.769531 -50.898438 35.9375 -50.03125 35.941406 -49.125 L 35.957031 -41.746094 C 35.960938 -40.839844 35.792969 -39.972656 35.460938 -39.148438 C 35.035156 -38.097656 34.386719 -37.214844 33.511719 -36.496094 C 32.25 -35.457031 30.765625 -34.9375 29.054688 -34.933594 Z M 0.566406 -47.34375 L 29.023438 -47.410156 C 28.578125 -47.410156 28.132812 -47.347656 27.679688 -47.222656 C 26.914062 -47.011719 26.214844 -46.648438 25.585938 -46.132812 C 24.828125 -45.507812 24.261719 -44.738281 23.894531 -43.828125 C 23.617188 -43.144531 23.480469 -42.4375 23.480469 -41.71875 L 23.460938 -49.09375 C 23.464844 -48.371094 23.605469 -47.671875 23.886719 -46.984375 C 24.257812 -46.078125 24.828125 -45.3125 25.589844 -44.691406 C 26.21875 -44.175781 26.921875 -43.816406 27.6875 -43.609375 C 28.140625 -43.488281 28.589844 -43.425781 29.03125 -43.425781 L 0.578125 -43.359375 C 1.019531 -43.359375 1.46875 -43.421875 1.921875 -43.546875 C 2.6875 -43.757812 3.386719 -44.121094 4.011719 -44.636719 C 4.773438 -45.261719 5.339844 -46.03125 5.707031 -46.941406 C 5.984375 -47.628906 6.121094 -48.332031 6.121094 -49.054688 L 6.136719 -41.675781 C 6.136719 -42.398438 5.996094 -43.101562 5.714844 -43.785156 C 5.339844 -44.695312 4.773438 -45.457031 4.011719 -46.082031 C 3.378906 -46.59375 2.679688 -46.953125 1.910156 -47.160156 C 1.457031 -47.285156 1.011719 -47.34375 0.566406 -47.34375 Z M 0.566406 -47.34375 "/></g></g></g><g fill="#800200" fill-opacity="1"><g transform="translate(199.736139, 176.148699)"><g><path d="M 20.511719 -14.308594 C 22.226562 -14.273438 23.703125 -13.722656 24.941406 -12.664062 C 25.800781 -11.929688 26.4375 -11.035156 26.839844 -9.976562 C 27.160156 -9.144531 27.308594 -8.273438 27.289062 -7.367188 L 27.136719 0.0078125 C 27.117188 0.914062 26.933594 1.777344 26.578125 2.59375 C 26.128906 3.636719 25.460938 4.503906 24.570312 5.203125 C 23.285156 6.210938 21.789062 6.695312 20.074219 6.660156 L 0.550781 6.25 C -1.160156 6.214844 -2.636719 5.667969 -3.878906 4.609375 C -4.738281 3.875 -5.371094 2.976562 -5.777344 1.917969 C -6.09375 1.089844 -6.246094 0.21875 -6.226562 -0.6875 L -6.070312 -8.0625 C -6.054688 -8.972656 -5.867188 -9.832031 -5.515625 -10.652344 C -5.066406 -11.691406 -4.394531 -12.558594 -3.503906 -13.257812 C -2.21875 -14.265625 -0.722656 -14.75 0.988281 -14.714844 L 6.070312 -14.609375 L 5.941406 -8.371094 L -0.296875 -8.5 L 0.0703125 -26.042969 L 0.382812 -41.105469 L 0.691406 -55.832031 L 22.648438 -55.375 L 22.34375 -40.644531 L 22.027344 -25.582031 L 21.660156 -8.042969 L 15.425781 -8.171875 L 15.554688 -14.410156 Z M 20.253906 -1.832031 L 9.058594 -2.066406 L 9.554688 -25.84375 L 9.867188 -40.90625 L 10.042969 -49.398438 L 16.28125 -49.265625 L 16.152344 -43.03125 L 6.667969 -43.226562 L 6.800781 -49.464844 L 13.035156 -49.335938 L 12.859375 -40.84375 L 12.542969 -25.78125 L 12.046875 -2.003906 L 0.730469 -2.238281 C 1.171875 -2.230469 1.621094 -2.28125 2.074219 -2.398438 C 2.847656 -2.589844 3.554688 -2.9375 4.195312 -3.4375 C 4.96875 -4.046875 5.550781 -4.800781 5.941406 -5.703125 C 6.234375 -6.382812 6.386719 -7.082031 6.402344 -7.804688 L 6.25 -0.425781 C 6.265625 -1.148438 6.140625 -1.855469 5.875 -2.546875 C 5.523438 -3.464844 4.972656 -4.242188 4.222656 -4.882812 C 3.605469 -5.40625 2.914062 -5.785156 2.152344 -6.011719 C 1.703125 -6.144531 1.253906 -6.214844 0.8125 -6.222656 L 20.335938 -5.816406 C 19.894531 -5.824219 19.445312 -5.773438 18.988281 -5.660156 C 18.214844 -5.464844 17.511719 -5.117188 16.871094 -4.617188 C 16.097656 -4.007812 15.515625 -3.253906 15.125 -2.351562 C 14.832031 -1.675781 14.675781 -0.972656 14.660156 -0.253906 L 14.816406 -7.628906 C 14.800781 -6.90625 14.925781 -6.199219 15.191406 -5.511719 C 15.542969 -4.59375 16.09375 -3.8125 16.839844 -3.175781 C 17.457031 -2.648438 18.148438 -2.269531 18.914062 -2.046875 C 19.363281 -1.914062 19.808594 -1.839844 20.253906 -1.832031 Z M 20.253906 -1.832031 "/></g></g></g><g fill="#800200" fill-opacity="1"><g transform="translate(220.898799, 176.481689)"><g><path d="M 28 -45.339844 L 46.628906 -44.46875 L 25.601562 3.140625 C 24.921875 4.628906 23.871094 5.726562 22.453125 6.433594 C 21.390625 6.957031 20.25 7.191406 19.03125 7.136719 C 17.90625 7.082031 16.863281 6.789062 15.90625 6.253906 C 14.75 5.605469 13.855469 4.695312 13.222656 3.519531 L 12.964844 3.042969 L -3.578125 -46.832031 C -3.902344 -47.761719 -4.007812 -48.730469 -3.902344 -49.742188 C -3.765625 -51.023438 -3.300781 -52.167969 -2.503906 -53.179688 C -1.707031 -54.191406 -0.703125 -54.910156 0.511719 -55.347656 C 1.375 -55.65625 2.28125 -55.789062 3.226562 -55.746094 L 11.648438 -55.351562 C 12.984375 -55.289062 14.183594 -54.90625 15.242188 -54.199219 C 16.070312 -53.648438 16.742188 -52.949219 17.25 -52.097656 C 17.742188 -51.285156 18.042969 -50.40625 18.15625 -49.457031 L 11.960938 -48.71875 L 17.925781 -50.542969 L 26.324219 -23.09375 L 20.359375 -21.265625 L 14.589844 -23.644531 L 23.613281 -45.542969 Z M 27.417969 -32.875 L 27.707031 -39.109375 L 33.476562 -36.730469 L 19.488281 -2.78125 L 5.832031 -47.425781 L 5.765625 -47.980469 C 5.863281 -47.15625 6.125 -46.386719 6.558594 -45.667969 C 7.011719 -44.917969 7.601562 -44.296875 8.332031 -43.8125 C 9.1875 -43.242188 10.101562 -42.933594 11.066406 -42.886719 L 2.644531 -43.28125 C 3.34375 -43.25 4.035156 -43.355469 4.71875 -43.601562 C 5.753906 -43.972656 6.617188 -44.589844 7.300781 -45.460938 C 7.988281 -46.335938 8.390625 -47.324219 8.507812 -48.429688 C 8.59375 -49.265625 8.515625 -50.042969 8.265625 -50.761719 L 24.636719 -1.398438 L 18.714844 0.566406 L 24.210938 -2.390625 C 23.695312 -3.351562 22.957031 -4.101562 22 -4.636719 C 21.246094 -5.058594 20.449219 -5.289062 19.613281 -5.328125 C 18.679688 -5.371094 17.78125 -5.179688 16.910156 -4.746094 C 15.679688 -4.136719 14.773438 -3.1875 14.1875 -1.902344 L 31.539062 -41.183594 L 37.246094 -38.660156 L 36.953125 -32.429688 Z M 27.417969 -32.875 "/></g></g></g><g fill="#800200" fill-opacity="1"><g transform="translate(257.150246, 178.208091)"><g><path d="M 30.417969 -6.929688 L 29.230469 8.5 L 0.203125 6.273438 C -1.503906 6.140625 -2.949219 5.511719 -4.128906 4.386719 C -4.945312 3.605469 -5.527344 2.675781 -5.875 1.59375 C -6.144531 0.746094 -6.246094 -0.128906 -6.179688 -1.035156 L -2.46875 -49.371094 C -2.398438 -50.277344 -2.167969 -51.128906 -1.769531 -51.921875 C -1.261719 -52.9375 -0.542969 -53.769531 0.382812 -54.414062 C 1.722656 -55.347656 3.246094 -55.75 4.953125 -55.617188 L 33.980469 -53.390625 L 32.339844 -31.988281 L 12.085938 -33.542969 L 12.5625 -39.761719 L 18.785156 -39.285156 L 17.925781 -28.097656 L 11.707031 -28.574219 L 12.183594 -34.792969 L 31.59375 -33.304688 C 33.300781 -33.175781 34.742188 -32.546875 35.921875 -31.417969 C 36.742188 -30.636719 37.324219 -29.707031 37.667969 -28.628906 C 37.941406 -27.78125 38.042969 -26.902344 37.972656 -26 L 37.371094 -18.148438 C 37.300781 -17.242188 37.066406 -16.394531 36.667969 -15.597656 C 36.164062 -14.582031 35.445312 -13.753906 34.515625 -13.105469 C 33.179688 -12.171875 31.65625 -11.769531 29.949219 -11.902344 L 10.539062 -13.390625 L 11.019531 -19.609375 L 17.238281 -19.132812 L 16.382812 -8.007812 L 10.164062 -8.484375 L 10.640625 -14.703125 L 30.894531 -13.152344 Z M 17.976562 -7.886719 L 24.195312 -7.40625 L 23.71875 -1.1875 L 3.464844 -2.742188 L 5.273438 -26.308594 L 30.90625 -24.34375 C 30.460938 -24.375 30.011719 -24.347656 29.550781 -24.261719 C 28.769531 -24.109375 28.042969 -23.804688 27.378906 -23.339844 C 26.570312 -22.773438 25.945312 -22.054688 25.507812 -21.175781 C 25.175781 -20.511719 24.984375 -19.824219 24.929688 -19.101562 L 25.53125 -26.953125 C 25.476562 -26.234375 25.5625 -25.523438 25.789062 -24.816406 C 26.085938 -23.882812 26.59375 -23.074219 27.304688 -22.394531 C 27.894531 -21.832031 28.5625 -21.417969 29.3125 -21.152344 C 29.753906 -20.992188 30.195312 -20.898438 30.636719 -20.863281 L 5.007812 -22.832031 L 6.820312 -46.460938 L 27.074219 -44.90625 L 26.59375 -38.6875 L 20.375 -39.164062 L 21.0625 -48.125 L 27.28125 -47.648438 L 26.804688 -41.429688 L 3.996094 -43.179688 C 4.4375 -43.144531 4.890625 -43.171875 5.351562 -43.257812 C 6.132812 -43.410156 6.855469 -43.71875 7.523438 -44.183594 C 8.332031 -44.746094 8.953125 -45.464844 9.394531 -46.34375 C 9.722656 -47.007812 9.917969 -47.699219 9.972656 -48.417969 L 6.261719 -0.078125 C 6.320312 -0.796875 6.234375 -1.511719 6.007812 -2.214844 C 5.707031 -3.152344 5.199219 -3.957031 4.488281 -4.636719 C 3.902344 -5.199219 3.234375 -5.613281 2.480469 -5.882812 C 2.039062 -6.039062 1.597656 -6.132812 1.15625 -6.167969 L 23.964844 -4.417969 L 23.488281 1.800781 L 17.269531 1.324219 Z M 17.976562 -7.886719 "/></g></g></g><g fill="#ffffff" fill-opacity="1"><g transform="translate(86.591867, 180.497924)"><g><path d="M 37.421875 -52.375 C 37.867188 -52.40625 38.101562 -52.238281 38.125 -51.875 L 41.5625 -3.515625 C 41.59375 -3.140625 41.382812 -2.9375 40.9375 -2.90625 L 32.78125 -2.328125 C 32.738281 -2.328125 32.640625 -2.34375 32.484375 -2.375 C 32.335938 -2.40625 32.242188 -2.441406 32.203125 -2.484375 L 7.125 -33.453125 L 8.609375 -12.546875 L -0.84375 -11.875 L -3.484375 -48.921875 C -3.503906 -49.285156 -3.304688 -49.484375 -2.890625 -49.515625 L 5.328125 -50.09375 C 5.410156 -50.101562 5.507812 -50.101562 5.625 -50.09375 C 5.75 -50.082031 5.835938 -50.035156 5.890625 -49.953125 L 31.03125 -18.984375 L 28.734375 -51.21875 C 28.710938 -51.582031 28.953125 -51.78125 29.453125 -51.8125 Z M 37.421875 -52.375 "/></g></g></g><g fill="#ffffff" fill-opacity="1"><g transform="translate(129.19538, 177.473191)"><g><path d="M 38.890625 -2.078125 C 38.984375 -1.910156 38.96875 -1.738281 38.84375 -1.5625 C 38.726562 -1.394531 38.566406 -1.304688 38.359375 -1.296875 L 29.8125 -1.015625 C 29.519531 -1.003906 29.328125 -1.125 29.234375 -1.375 L 18.5 -28.671875 L 9.78125 -0.703125 C 9.75 -0.453125 9.546875 -0.320312 9.171875 -0.3125 L 0.6875 -0.015625 C 0.394531 -0.015625 0.191406 -0.09375 0.078125 -0.25 C -0.0234375 -0.414062 -0.0390625 -0.582031 0.03125 -0.75 L 17.15625 -49.84375 C 17.226562 -50.082031 17.429688 -50.207031 17.765625 -50.21875 C 18.097656 -50.226562 18.3125 -50.117188 18.40625 -49.890625 Z M 38.890625 -2.078125 "/></g></g></g><g fill="#ffffff" fill-opacity="1"><g transform="translate(169.134695, 176.176287)"><g><path d="M 10.15625 -31.65625 L 19.578125 -31.671875 L 19.65625 -0.609375 C 19.65625 -0.234375 19.40625 -0.046875 18.90625 -0.046875 L 10.90625 -0.03125 C 10.457031 -0.03125 10.234375 -0.21875 10.234375 -0.59375 Z M 0.59375 -41.109375 C 0.132812 -41.109375 -0.09375 -41.289062 -0.09375 -41.65625 L -0.125 -49.046875 C -0.125 -49.410156 0.101562 -49.59375 0.5625 -49.59375 L 29.015625 -49.65625 C 29.472656 -49.664062 29.703125 -49.488281 29.703125 -49.125 L 29.734375 -41.734375 C 29.734375 -41.367188 29.503906 -41.179688 29.046875 -41.171875 Z M 0.59375 -41.109375 "/></g></g></g><g fill="#ffffff" fill-opacity="1"><g transform="translate(199.736139, 176.148699)"><g><path d="M 20.390625 -8.078125 C 20.835938 -8.066406 21.0625 -7.875 21.0625 -7.5 L 20.90625 -0.125 C 20.894531 0.25 20.664062 0.429688 20.21875 0.421875 L 0.6875 0.015625 C 0.226562 0.00390625 0.00390625 -0.1875 0.015625 -0.5625 L 0.171875 -7.9375 C 0.171875 -8.3125 0.398438 -8.492188 0.859375 -8.484375 L 5.9375 -8.375 L 6.3125 -25.921875 L 6.625 -40.96875 L 6.796875 -49.453125 L 16.28125 -49.265625 L 16.109375 -40.78125 L 15.796875 -25.734375 L 15.421875 -8.1875 Z M 20.390625 -8.078125 "/></g></g></g><g fill="#ffffff" fill-opacity="1"><g transform="translate(220.898799, 176.481689)"><g><path d="M 27.71875 -39.109375 L 37.265625 -38.65625 L 19.90625 0.609375 C 19.8125 0.816406 19.617188 0.910156 19.328125 0.890625 C 19.035156 0.878906 18.832031 0.769531 18.71875 0.5625 L 2.34375 -48.8125 C 2.269531 -49.019531 2.285156 -49.191406 2.390625 -49.328125 C 2.503906 -49.460938 2.6875 -49.523438 2.9375 -49.515625 L 11.34375 -49.125 C 11.71875 -49.101562 11.921875 -48.972656 11.953125 -48.734375 L 20.359375 -21.265625 Z M 27.71875 -39.109375 "/></g></g></g><g fill="#ffffff" fill-opacity="1"><g transform="translate(257.150246, 178.208091)"><g><path d="M 24.203125 -7.40625 L 23.5 1.796875 L 0.6875 0.046875 C 0.226562 0.015625 0.015625 -0.1875 0.046875 -0.5625 L 3.75 -48.90625 C 3.78125 -49.269531 4.023438 -49.4375 4.484375 -49.40625 L 27.296875 -47.65625 L 26.609375 -38.6875 L 12.5625 -39.765625 L 11.703125 -28.578125 L 31.125 -27.078125 C 31.570312 -27.046875 31.78125 -26.847656 31.75 -26.484375 L 31.15625 -18.625 C 31.125 -18.25 30.882812 -18.078125 30.4375 -18.109375 L 11.015625 -19.609375 L 10.15625 -8.484375 Z M 24.203125 -7.40625 "/></g></g></g><g fill="#800200" fill-opacity="1"><g transform="translate(112.139947, 226.406332)"><g><path d="M 49.617188 1.195312 L 37.605469 1.511719 L 29.195312 -19 L 31.5 -19.945312 L 33.855469 -19.121094 L 26.53125 1.800781 L 12.953125 2.15625 L -4.492188 -31.796875 L 13.671875 -32.269531 L 22.207031 -12.226562 L 19.914062 -11.25 L 17.589844 -12.164062 L 25.621094 -32.582031 L 36.714844 -32.875 L 45.800781 -12.902344 L 43.53125 -11.871094 L 41.1875 -12.726562 L 48.660156 -33.1875 L 66.828125 -33.664062 L 51.183594 1.152344 Z M 49.484375 -3.789062 L 49.550781 -1.296875 L 47.277344 -2.320312 L 60.652344 -32.089844 L 62.925781 -31.066406 L 62.992188 -28.574219 L 50.484375 -28.246094 L 50.421875 -30.738281 L 52.761719 -29.882812 L 43.78125 -5.292969 L 32.855469 -29.304688 L 35.128906 -30.339844 L 35.191406 -27.84375 L 27.402344 -27.640625 L 27.335938 -30.132812 L 29.65625 -29.222656 L 20.003906 -4.667969 L 9.75 -28.757812 L 12.042969 -29.734375 L 12.109375 -27.242188 L -0.398438 -26.914062 L -0.460938 -29.40625 L 1.753906 -30.546875 L 16.671875 -1.519531 L 14.453125 -0.378906 L 14.386719 -2.871094 L 24.679688 -3.140625 L 24.746094 -0.648438 L 22.390625 -1.472656 L 31.316406 -26.964844 L 41.566406 -1.972656 L 39.257812 -1.027344 L 39.195312 -3.519531 Z M 49.484375 -3.789062 "/></g></g></g><g fill="#800200" fill-opacity="1"><g transform="translate(175.765148, 224.919054)"><g><path d="M 38.707031 2.691406 L 0.773438 2.496094 L 0.949219 -31.917969 L 39.753906 -31.722656 L 39.691406 -19.453125 L 15.726562 -19.574219 L 15.738281 -22.070312 L 18.234375 -22.054688 L 18.210938 -17.441406 L 15.714844 -17.453125 L 15.726562 -19.949219 L 36.371094 -19.84375 L 36.316406 -9.195312 L 15.675781 -9.300781 L 15.6875 -11.792969 L 18.179688 -11.78125 L 18.15625 -7.1875 L 15.664062 -7.199219 L 15.675781 -9.695312 L 41.261719 -9.566406 L 41.199219 2.703125 Z M 38.730469 -2.296875 L 38.71875 0.195312 L 36.222656 0.183594 L 36.261719 -7.097656 L 38.753906 -7.085938 L 38.742188 -4.589844 L 13.15625 -4.71875 L 13.207031 -14.300781 L 33.847656 -14.195312 L 33.835938 -11.703125 L 31.34375 -11.714844 L 31.371094 -17.375 L 33.863281 -17.363281 L 33.851562 -14.871094 L 13.210938 -14.972656 L 13.257812 -24.574219 L 37.222656 -24.453125 L 37.210938 -21.960938 L 34.714844 -21.972656 L 34.753906 -29.253906 L 37.246094 -29.242188 L 37.234375 -26.746094 L 3.417969 -26.917969 L 3.429688 -29.410156 L 5.925781 -29.398438 L 5.773438 0.0273438 L 3.28125 0.015625 L 3.292969 -2.476562 Z M 38.730469 -2.296875 "/></g></g></g><g fill="#800200" fill-opacity="1"><g transform="translate(215.805222, 225.073437)"><g><path d="M 24.292969 3.253906 L 0.710938 2.515625 L 1.785156 -31.863281 L 25.820312 -31.109375 C 29.761719 -30.988281 33.023438 -30.703125 35.597656 -30.257812 C 38.367188 -29.777344 40.539062 -29.066406 42.121094 -28.121094 C 43.933594 -27.039062 45.164062 -25.644531 45.8125 -23.945312 C 46.371094 -22.46875 46.621094 -20.769531 46.5625 -18.835938 L 46.558594 -18.796875 L 46.558594 -18.753906 C 46.441406 -16.957031 45.871094 -15.445312 44.847656 -14.21875 C 43.917969 -13.109375 42.828125 -12.285156 41.582031 -11.753906 C 40.363281 -11.234375 39.242188 -10.988281 38.21875 -11.023438 L 38.375 -16.007812 C 39.257812 -15.980469 40.238281 -15.789062 41.316406 -15.433594 C 42.367188 -15.089844 43.375 -14.613281 44.347656 -14 C 45.410156 -13.328125 46.292969 -12.519531 46.996094 -11.566406 C 47.859375 -10.402344 48.265625 -9.09375 48.222656 -7.644531 C 48.179688 -6.269531 47.976562 -5 47.609375 -3.832031 C 47.175781 -2.433594 46.367188 -1.222656 45.1875 -0.203125 C 44.089844 0.746094 42.582031 1.503906 40.664062 2.070312 C 38.917969 2.585938 36.695312 2.941406 33.988281 3.144531 C 31.371094 3.335938 28.140625 3.375 24.292969 3.253906 Z M 24.449219 -1.730469 C 28.121094 -1.617188 31.175781 -1.648438 33.617188 -1.832031 C 35.972656 -2.003906 37.847656 -2.300781 39.253906 -2.710938 C 40.480469 -3.074219 41.371094 -3.492188 41.917969 -3.96875 C 42.386719 -4.375 42.695312 -4.824219 42.851562 -5.320312 C 43.078125 -6.054688 43.207031 -6.878906 43.238281 -7.800781 C 43.246094 -8.097656 43.164062 -8.363281 42.988281 -8.601562 C 42.65625 -9.050781 42.222656 -9.441406 41.6875 -9.78125 C 41.0625 -10.175781 40.421875 -10.480469 39.765625 -10.695312 C 39.136719 -10.898438 38.625 -11.007812 38.21875 -11.023438 L 38.375 -16.007812 C 38.664062 -15.996094 39.082031 -16.109375 39.625 -16.339844 C 40.136719 -16.558594 40.605469 -16.921875 41.023438 -17.421875 C 41.347656 -17.8125 41.535156 -18.359375 41.578125 -19.074219 L 44.070312 -18.914062 L 41.574219 -18.992188 C 41.617188 -20.257812 41.472656 -21.320312 41.148438 -22.171875 C 40.910156 -22.792969 40.382812 -23.351562 39.5625 -23.839844 C 38.511719 -24.46875 36.90625 -24.96875 34.75 -25.34375 C 32.402344 -25.75 29.375 -26.007812 25.664062 -26.125 L 4.121094 -26.796875 L 4.199219 -29.292969 L 6.691406 -29.214844 L 5.773438 0.179688 L 3.28125 0.101562 L 3.359375 -2.390625 Z M 24.292969 -18.96875 C 25.945312 -18.917969 27.199219 -18.957031 28.050781 -19.082031 C 28.386719 -19.128906 28.648438 -19.1875 28.84375 -19.257812 C 28.890625 -19.277344 28.925781 -19.289062 28.945312 -19.300781 C 28.917969 -19.285156 28.882812 -19.257812 28.84375 -19.222656 C 28.773438 -19.164062 28.71875 -19.085938 28.675781 -18.988281 C 28.640625 -18.914062 28.625 -18.851562 28.625 -18.800781 C 28.621094 -18.761719 28.632812 -18.707031 28.660156 -18.640625 C 28.695312 -18.539062 28.75 -18.457031 28.816406 -18.390625 C 28.855469 -18.347656 28.890625 -18.320312 28.917969 -18.300781 C 28.902344 -18.3125 28.871094 -18.328125 28.824219 -18.347656 C 28.636719 -18.425781 28.378906 -18.5 28.050781 -18.566406 C 27.203125 -18.742188 25.949219 -18.851562 24.289062 -18.90625 L 16.234375 -19.15625 L 16.3125 -21.648438 L 18.804688 -21.570312 L 18.648438 -16.652344 L 16.15625 -16.730469 L 16.234375 -19.222656 Z M 24.136719 -13.984375 L 13.585938 -14.316406 L 13.898438 -24.21875 L 24.445312 -23.890625 C 26.390625 -23.828125 27.925781 -23.683594 29.050781 -23.453125 C 30.527344 -23.152344 31.628906 -22.632812 32.355469 -21.902344 C 32.792969 -21.460938 33.121094 -20.953125 33.332031 -20.382812 C 33.535156 -19.839844 33.628906 -19.261719 33.609375 -18.648438 C 33.589844 -18.035156 33.460938 -17.464844 33.222656 -16.9375 C 32.972656 -16.386719 32.617188 -15.90625 32.15625 -15.496094 C 31.390625 -14.816406 30.265625 -14.367188 28.777344 -14.144531 C 27.632812 -13.976562 26.085938 -13.925781 24.136719 -13.984375 Z M 23.980469 -9.007812 C 25.753906 -8.953125 27.183594 -8.953125 28.265625 -9.011719 C 28.699219 -9.03125 29.058594 -9.074219 29.339844 -9.140625 C 29.507812 -9.179688 29.613281 -9.210938 29.65625 -9.238281 C 29.523438 -9.15625 29.421875 -9.046875 29.34375 -8.902344 C 29.320312 -8.851562 29.304688 -8.808594 29.292969 -8.769531 L 29.292969 -8.765625 C 29.292969 -8.777344 29.296875 -8.792969 29.296875 -8.808594 C 29.296875 -8.828125 29.296875 -8.84375 29.296875 -8.855469 L 29.296875 -8.851562 C 29.300781 -8.816406 29.316406 -8.773438 29.335938 -8.722656 C 29.402344 -8.582031 29.492188 -8.46875 29.613281 -8.382812 C 29.601562 -8.386719 29.585938 -8.394531 29.566406 -8.40625 C 29.503906 -8.433594 29.421875 -8.464844 29.320312 -8.492188 C 29.046875 -8.574219 28.695312 -8.636719 28.269531 -8.683594 C 27.1875 -8.800781 25.757812 -8.886719 23.976562 -8.941406 L 15.921875 -9.195312 L 16 -11.6875 L 18.492188 -11.609375 L 18.339844 -6.691406 L 15.847656 -6.769531 L 15.925781 -9.261719 Z M 23.824219 -4.023438 L 13.277344 -4.351562 L 13.585938 -14.257812 L 24.132812 -13.929688 C 26.042969 -13.867188 27.601562 -13.773438 28.808594 -13.640625 C 30.378906 -13.46875 31.597656 -13.082031 32.46875 -12.472656 C 33.113281 -12.023438 33.589844 -11.445312 33.902344 -10.734375 C 34.179688 -10.109375 34.304688 -9.414062 34.28125 -8.652344 C 34.257812 -7.890625 34.085938 -7.207031 33.769531 -6.597656 C 33.410156 -5.90625 32.890625 -5.359375 32.214844 -4.957031 C 31.320312 -4.417969 30.085938 -4.109375 28.523438 -4.027344 C 27.304688 -3.964844 25.738281 -3.964844 23.824219 -4.023438 Z M 23.824219 -4.023438 "/></g></g></g><g fill="#ffffff" fill-opacity="1"><g transform="translate(112.139947, 226.406332)"><g><path d="M 49.546875 -1.296875 L 39.25 -1.03125 L 31.5 -19.953125 L 24.734375 -0.640625 L 14.453125 -0.375 L -0.453125 -29.40625 L 12.046875 -29.71875 L 19.921875 -11.25 L 27.328125 -30.125 L 35.125 -30.328125 L 43.53125 -11.859375 L 50.421875 -30.734375 L 62.9375 -31.0625 Z M 49.546875 -1.296875 "/></g></g></g><g fill="#ffffff" fill-opacity="1"><g transform="translate(175.765148, 224.919054)"><g><path d="M 38.71875 0.203125 L 3.28125 0.015625 L 3.4375 -29.40625 L 37.25 -29.234375 L 37.203125 -21.96875 L 15.734375 -22.078125 L 15.71875 -17.453125 L 33.875 -17.359375 L 33.84375 -11.703125 L 15.6875 -11.796875 L 15.65625 -7.203125 L 38.75 -7.078125 Z M 38.71875 0.203125 "/></g></g></g><g fill="#ffffff" fill-opacity="1"><g transform="translate(215.805222, 225.073437)"><g><path d="M 24.375 0.765625 L 3.28125 0.109375 L 4.203125 -29.28125 L 25.734375 -28.609375 C 29.566406 -28.492188 32.710938 -28.222656 35.171875 -27.796875 C 37.640625 -27.367188 39.53125 -26.757812 40.84375 -25.96875 C 42.15625 -25.1875 43.03125 -24.210938 43.46875 -23.046875 C 43.914062 -21.890625 44.117188 -20.507812 44.078125 -18.90625 C 43.992188 -17.644531 43.613281 -16.613281 42.9375 -15.8125 C 42.269531 -15.019531 41.492188 -14.429688 40.609375 -14.046875 C 39.722656 -13.671875 38.953125 -13.492188 38.296875 -13.515625 C 38.941406 -13.492188 39.691406 -13.34375 40.546875 -13.0625 C 41.398438 -12.789062 42.222656 -12.398438 43.015625 -11.890625 C 43.816406 -11.390625 44.476562 -10.785156 45 -10.078125 C 45.519531 -9.378906 45.765625 -8.59375 45.734375 -7.71875 C 45.703125 -6.570312 45.535156 -5.523438 45.234375 -4.578125 C 44.941406 -3.628906 44.382812 -2.800781 43.5625 -2.09375 C 42.738281 -1.382812 41.539062 -0.796875 39.96875 -0.328125 C 38.394531 0.140625 36.34375 0.46875 33.8125 0.65625 C 31.28125 0.84375 28.132812 0.878906 24.375 0.765625 Z M 24.203125 -16.484375 C 26.003906 -16.421875 27.40625 -16.460938 28.40625 -16.609375 C 29.414062 -16.753906 30.113281 -17 30.5 -17.34375 C 30.894531 -17.695312 31.097656 -18.15625 31.109375 -18.71875 C 31.128906 -19.289062 30.953125 -19.765625 30.578125 -20.140625 C 30.210938 -20.515625 29.535156 -20.800781 28.546875 -21 C 27.554688 -21.207031 26.160156 -21.34375 24.359375 -21.40625 L 16.3125 -21.65625 L 16.15625 -16.734375 Z M 23.90625 -6.53125 C 25.75 -6.46875 27.242188 -6.460938 28.390625 -6.515625 C 29.546875 -6.578125 30.394531 -6.769531 30.9375 -7.09375 C 31.476562 -7.425781 31.757812 -7.972656 31.78125 -8.734375 C 31.8125 -9.503906 31.566406 -10.070312 31.046875 -10.4375 C 30.523438 -10.800781 29.6875 -11.046875 28.53125 -11.171875 C 27.382812 -11.296875 25.890625 -11.390625 24.046875 -11.453125 L 16 -11.703125 L 15.859375 -6.78125 Z M 23.90625 -6.53125 "/></g></g></g></svg>